<?xml version="1.0" standalone="no"?>
<!DOCTYPE svg PUBLIC "-//W3C//DTD SVG 20010904//EN"
 "http://www.w3.org/TR/2001/REC-SVG-20010904/DTD/svg10.dtd">
<svg version="1.0" xmlns="http://www.w3.org/2000/svg"
 width="1280.000000pt" height="1066.000000pt" viewBox="0 0 1280.000000 1066.000000"
 preserveAspectRatio="xMidYMid meet">
<metadata>
Created by potrace 1.15, written by Peter Selinger 2001-2017
</metadata>
<g transform="translate(0.000000,1066.000000) scale(0.100000,-0.100000)"
fill="#000000" stroke="none">
<path d="M3880 10535 l0 -125 30 0 c29 0 30 2 30 45 l0 45 185 0 185 0 0 35 0
35 -185 0 -185 0 0 45 c0 43 -1 45 -30 45 l-30 0 0 -125z"/>
<path d="M3880 10334 l0 -37 151 5 c83 3 145 2 138 -3 -8 -4 -76 -31 -151 -60
l-138 -52 0 -38 0 -39 215 0 215 0 0 30 0 30 -157 1 -158 0 90 35 c50 19 121
46 158 60 l68 26 -3 37 -3 36 -212 3 -213 2 0 -36z"/>
<path d="M4480 10137 l0 -55 93 -35 c50 -20 121 -47 156 -60 l64 -23 -77 -28
c-42 -14 -112 -40 -156 -57 l-80 -31 0 -60 c0 -44 3 -59 13 -55 6 3 101 44
210 91 l198 86 125 0 125 0 -3 51 -3 52 -118 -2 -118 -2 -199 86 c-110 47
-206 88 -215 91 -12 5 -15 -3 -15 -49z"/>
<path d="M4250 9981 l0 -81 -70 0 -70 0 0 70 0 70 -30 0 -30 0 0 -70 0 -70
-55 0 -54 0 -3 73 c-3 70 -4 72 -30 75 l-28 3 0 -105 0 -106 215 0 215 0 0
105 c0 84 -3 105 -14 105 -8 0 -21 3 -30 6 -14 5 -16 -5 -16 -75z"/>
<path d="M3880 9710 c0 -57 -19 -47 180 -90 136 -30 136 -28 -15 -56 -171 -31
-165 -27 -165 -84 l0 -50 215 0 215 0 0 30 0 30 -177 2 -178 3 160 28 c205 36
195 33 195 67 0 27 -3 29 -72 44 -40 8 -113 23 -163 32 -49 9 -93 20 -97 23
-4 3 69 5 162 3 l170 -3 0 36 0 35 -215 0 -215 0 0 -50z"/>
<path d="M7320 9629 l0 -89 -95 0 -95 0 0 80 c0 73 -2 80 -20 80 -18 0 -20 -7
-20 -80 l0 -80 -80 0 -80 0 0 85 c0 78 -2 85 -20 85 -19 0 -20 -7 -20 -110 l0
-110 235 0 235 0 0 109 c0 100 -2 109 -20 114 -19 5 -20 0 -20 -84z"/>
<path d="M4570 9668 c-73 -37 -90 -83 -90 -240 l0 -128 335 0 335 0 0 50 0 49
-147 3 -148 3 0 59 c1 51 4 61 28 82 25 21 38 24 120 25 135 1 142 5 142 63
l0 49 -105 -2 c-126 -2 -174 -14 -206 -48 l-25 -27 -16 23 c-21 31 -89 61
-138 61 -23 0 -61 -10 -85 -22z m173 -116 c16 -16 22 -37 25 -87 l4 -66 -103
3 -104 3 1 64 c1 58 4 67 29 89 24 20 36 23 78 19 32 -3 56 -12 70 -25z"/>
<path d="M6965 9413 c-59 -15 -91 -67 -82 -134 10 -72 54 -103 172 -120 85
-11 206 1 255 26 42 21 63 68 57 122 -5 50 -28 80 -74 99 -47 20 -63 18 -63
-9 0 -17 11 -28 43 -42 36 -17 42 -25 45 -53 6 -65 -52 -92 -195 -92 -133 0
-193 26 -193 85 0 36 21 59 63 69 20 5 27 12 27 31 0 25 -11 29 -55 18z"/>
<path d="M3880 9260 l0 -131 28 3 c25 3 27 7 30 51 l3 47 185 0 184 0 0 30 0
30 -184 0 -185 0 -3 48 c-3 43 -5 47 -30 50 l-28 3 0 -131z"/>
<path d="M10470 9315 l0 -35 143 -1 142 0 -143 -56 -143 -56 3 -46 3 -46 213
-3 212 -2 0 40 0 41 -150 -3 c-82 -2 -146 0 -142 3 4 4 71 30 150 59 l142 53
0 44 0 43 -215 0 -215 0 0 -35z"/>
<path d="M4480 9126 l0 -55 271 -3 271 -3 24 -28 c50 -58 18 -139 -61 -157
-22 -5 -145 -10 -272 -10 l-233 0 0 -50 0 -50 264 0 c274 0 311 5 354 44 42
37 55 76 56 156 0 96 -25 150 -87 182 -40 22 -54 23 -314 26 l-273 3 0 -55z"/>
<path d="M3880 9059 l0 -31 150 4 c82 1 146 0 142 -3 -4 -3 -71 -30 -149 -59
l-143 -53 0 -39 0 -38 215 0 215 0 0 31 0 30 -159 -3 c-88 -2 -157 -1 -155 2
3 2 73 30 157 61 l152 57 3 36 3 36 -215 0 -216 0 0 -31z"/>
<path d="M6890 9055 l0 -25 185 -2 186 -3 -186 -73 -185 -73 0 -35 0 -34 235
0 235 0 0 25 0 25 -192 2 -191 3 191 75 192 75 0 32 0 33 -235 0 -235 0 0 -25z"/>
<path d="M10567 8998 c-141 -38 -137 -230 6 -269 66 -18 225 -8 267 17 47 27
72 77 67 133 -6 59 -34 93 -93 113 -55 19 -185 22 -247 6z m248 -92 c34 -22
33 -60 -2 -83 -41 -27 -232 -26 -262 1 -39 36 -24 77 36 96 45 15 199 5 228
-14z"/>
<path d="M6147 8826 c-20 -8 -45 -20 -54 -27 -50 -42 -76 -193 -53 -315 10
-54 20 -76 45 -101 51 -51 96 -52 188 -5 4 2 7 -3 7 -12 0 -12 10 -16 35 -16
l35 0 0 135 0 135 -80 0 -80 0 0 -35 c0 -34 1 -35 36 -35 l37 0 -6 -52 c-7
-59 -24 -80 -62 -80 -40 0 -55 22 -67 99 -12 84 2 195 29 225 25 28 74 21 91
-14 11 -24 19 -28 57 -28 l43 0 -10 38 c-13 48 -43 80 -87 92 -46 13 -58 12
-104 -4z"/>
<path d="M7522 8708 l3 -133 33 -3 32 -3 0 50 0 51 186 0 185 0 -3 36 -3 35
-180 2 -180 2 -3 48 c-3 46 -3 47 -38 47 l-35 0 3 -132z"/>
<path d="M5320 8591 l0 -241 45 0 44 0 3 103 3 102 40 -3 c53 -4 65 -22 65
-103 0 -91 4 -99 51 -99 l39 0 0 79 c0 84 -11 128 -36 148 -13 9 -12 14 10 36
50 50 42 147 -17 191 -24 18 -45 22 -138 24 l-109 4 0 -241z m190 149 c24 -24
26 -57 4 -88 -12 -17 -25 -22 -60 -22 l-44 0 0 65 0 65 40 0 c27 0 47 -7 60
-20z"/>
<path d="M5766 8813 c-14 -46 -106 -437 -106 -450 0 -11 10 -13 42 -11 34 2
44 7 46 23 2 11 8 37 13 58 l10 37 58 0 59 0 7 -46 c10 -71 13 -74 61 -74 24
0 44 3 44 8 0 4 -25 112 -57 240 l-58 232 -57 0 c-45 0 -58 -3 -62 -17z m83
-171 l18 -92 -38 0 c-22 0 -39 5 -39 11 0 18 34 178 37 175 2 -1 11 -44 22
-94z"/>
<path d="M6424 8817 c-2 -7 -3 -114 -2 -237 l3 -225 124 -3 c134 -3 141 -1
141 50 l0 26 -87 0 -88 0 -3 66 -3 66 81 0 80 0 0 40 0 40 -80 0 -80 0 0 55 0
55 85 0 85 0 0 40 0 40 -125 0 c-93 0 -127 -3 -131 -13z"/>
<path d="M1250 8785 l0 -35 50 0 50 0 0 -190 0 -190 45 0 45 0 0 190 0 190 50
0 50 0 0 35 0 35 -145 0 -145 0 0 -35z"/>
<path d="M1571 8613 c-29 -114 -54 -216 -57 -225 -5 -15 1 -18 39 -18 44 0 45
1 51 38 13 73 13 72 71 72 54 0 54 0 64 -37 6 -21 11 -46 11 -55 0 -15 9 -18
45 -18 29 0 45 4 45 13 0 6 -24 107 -53 222 l-53 210 -56 3 -55 3 -52 -208z
m124 38 c21 -100 21 -101 -20 -101 -24 0 -35 5 -35 15 0 21 32 166 36 162 2
-2 10 -36 19 -76z"/>
<path d="M1890 8595 l0 -225 41 0 41 0 -4 154 c-1 85 -1 152 1 150 3 -2 30
-71 62 -152 l57 -147 51 -3 51 -3 -2 223 -3 223 -37 3 -37 3 -3 -152 -3 -151
-59 151 -59 151 -48 0 -49 0 0 -225z"/>
<path d="M2230 8785 l0 -35 50 0 50 0 0 -190 0 -190 45 0 45 0 0 190 0 190 56
0 55 0 -3 33 -3 32 -147 3 -148 3 0 -36z"/>
<path d="M2570 8595 l0 -225 45 0 45 0 0 95 0 95 33 0 c17 0 37 -4 44 -8 20
-13 33 -61 33 -123 l0 -59 43 0 42 0 -5 90 c-5 75 -10 93 -28 113 -19 20 -20
25 -8 30 26 10 49 67 43 109 -11 79 -64 108 -197 108 l-90 0 0 -225z m184 139
c19 -18 21 -75 4 -92 -7 -7 -31 -12 -55 -12 l-43 0 0 60 0 60 39 0 c23 0 46
-7 55 -16z"/>
<path d="M2922 8625 l3 -195 33 -32 c31 -31 36 -33 106 -33 60 0 80 4 103 21
44 33 52 72 52 262 l1 172 -45 0 -45 0 0 -179 c0 -198 -4 -211 -60 -211 -56 0
-60 13 -60 211 l0 179 -46 0 -46 0 4 -195z"/>
<path d="M3300 8595 l0 -225 41 0 41 0 -4 180 c-1 99 0 173 4 163 3 -10 19
-91 34 -181 l27 -163 41 3 41 3 35 180 35 180 3 -182 2 -183 40 0 40 0 0 225
0 225 -65 0 c-36 0 -65 -3 -65 -7 0 -16 -58 -285 -62 -289 -3 -2 -12 42 -22
99 -10 56 -22 123 -28 150 l-10 47 -64 0 -64 0 0 -225z"/>
<path d="M4250 8711 l0 -81 -70 0 -70 0 0 70 0 70 -30 0 -30 0 0 -70 0 -70
-55 0 -54 0 -3 73 c-3 70 -4 72 -30 75 l-28 3 0 -111 0 -110 213 2 212 3 3
108 c2 88 0 107 -12 107 -8 0 -21 3 -30 6 -14 5 -16 -5 -16 -75z"/>
<path d="M11060 8729 l0 -30 190 3 c104 2 186 0 182 -3 -4 -3 -89 -39 -189
-80 l-183 -74 0 -37 0 -38 245 0 245 0 0 31 0 32 -195 -5 c-108 -2 -192 -1
-188 2 5 4 92 40 195 81 l188 74 0 38 0 37 -245 0 -245 0 0 -31z"/>
<path d="M7320 8665 l0 -85 -95 0 -95 0 0 80 c0 73 -2 80 -20 80 -18 0 -20 -7
-20 -80 l0 -80 -80 0 -80 0 0 80 c0 73 -2 80 -20 80 -19 0 -20 -7 -20 -110 l0
-110 235 0 235 0 0 115 c0 108 -1 115 -20 115 -18 0 -20 -7 -20 -85z"/>
<path d="M4480 8520 l0 -170 335 0 335 0 0 50 0 50 -150 0 -150 0 0 115 0 115
-45 0 -45 0 0 -115 0 -115 -95 0 -95 0 0 120 0 120 -45 0 -45 0 0 -170z"/>
<path d="M10470 8610 l0 -40 215 0 215 0 0 40 0 40 -215 0 -215 0 0 -40z"/>
<path d="M7522 8493 l3 -38 215 0 215 0 3 38 3 37 -221 0 -221 0 3 -37z"/>
<path d="M10470 8391 l0 -141 35 0 35 0 0 50 0 50 180 0 180 0 0 40 0 40 -179
0 -180 0 -3 48 c-3 45 -4 47 -35 50 l-33 3 0 -140z"/>
<path d="M4130 8492 c-22 -13 -45 -39 -67 -78 -18 -32 -40 -64 -50 -71 -27
-21 -61 -15 -79 12 -15 23 -15 27 0 50 9 14 25 25 36 25 16 0 20 7 20 36 0 34
-1 36 -27 29 -64 -15 -93 -53 -93 -118 0 -72 64 -123 136 -109 47 8 70 29 103
92 34 63 54 80 94 80 62 0 77 -83 20 -110 -27 -12 -33 -21 -33 -49 0 -26 3
-32 16 -27 9 3 22 6 31 6 8 0 28 13 44 29 25 26 29 37 29 88 0 68 -17 99 -66
119 -45 19 -73 18 -114 -4z"/>
<path d="M6890 8405 l0 -25 235 0 235 0 0 25 0 25 -235 0 -235 0 0 -25z"/>
<path d="M7527 8403 c-4 -3 -7 -55 -7 -115 l0 -108 218 2 217 3 3 38 3 37 -95
0 -96 0 0 70 0 70 -35 0 -35 0 0 -70 0 -70 -55 0 -55 0 0 75 0 75 -28 0 c-16
0 -32 -3 -35 -7z"/>
<path d="M11189 8376 c-31 -6 -68 -20 -83 -30 -55 -36 -71 -132 -31 -192 9
-14 38 -36 63 -47 41 -19 64 -22 172 -21 136 1 175 11 219 58 48 51 35 164
-24 202 -60 39 -208 54 -316 30z m272 -75 c35 -17 53 -53 45 -86 -11 -44 -78
-67 -199 -67 -142 0 -197 25 -197 87 0 36 23 61 66 75 42 13 254 6 285 -9z"/>
<path d="M6890 8193 c0 -125 1 -133 19 -133 17 0 20 8 23 53 l3 52 213 3 212
2 0 25 0 25 -215 0 -215 0 0 53 c0 46 -3 53 -20 53 -19 0 -20 -7 -20 -133z"/>
<path d="M10673 8227 l-203 -50 0 -52 0 -53 208 -51 c114 -28 210 -51 215 -51
4 0 7 17 7 38 l0 39 -55 12 -56 13 3 51 3 52 50 10 c50 11 50 11 53 53 2 30
-1 42 -10 41 -7 -1 -104 -24 -215 -52z m57 -102 c0 -45 -4 -45 -155 -9 -26 6
-20 9 50 24 110 24 105 25 105 -15z"/>
<path d="M4250 8141 l0 -81 -70 0 -70 0 0 70 0 70 -30 0 -30 0 0 -70 0 -70
-55 0 -54 0 -3 73 c-3 70 -4 72 -30 75 l-28 3 0 -105 0 -106 215 0 215 0 0
105 c0 84 -3 105 -14 105 -8 0 -21 3 -30 6 -14 5 -16 -5 -16 -75z"/>
<path d="M1870 8178 c0 -7 20 -114 43 -238 l44 -225 44 -3 45 -3 29 153 c26
139 45 204 45 153 0 -11 12 -84 27 -162 l27 -143 43 0 c36 0 43 3 48 23 3 12
23 110 45 217 22 107 42 205 45 218 5 20 2 22 -39 22 l-43 0 -22 -137 c-12
-76 -21 -147 -21 -159 0 -11 -3 -24 -7 -28 -4 -4 -21 66 -38 156 l-30 163 -40
3 -40 3 -29 -158 c-31 -166 -45 -214 -46 -153 0 19 -9 94 -20 165 -11 72 -20
133 -20 138 0 13 -90 8 -90 -5z"/>
<path d="M2410 7950 l0 -240 40 0 40 0 0 98 c0 54 2 101 5 104 7 7 83 -7 93
-17 4 -3 9 -46 12 -93 l5 -87 44 -3 44 -3 -5 91 c-5 73 -10 98 -27 121 l-22
30 25 30 c31 36 35 102 11 149 -24 47 -61 60 -170 60 l-95 0 0 -240z m173 158
c9 -7 19 -27 23 -43 8 -43 -19 -73 -71 -77 l-40 -3 -3 68 -3 67 39 0 c21 0 46
-6 55 -12z"/>
<path d="M2835 8168 c-55 -232 -105 -448 -105 -453 0 -3 20 -5 44 -5 l44 0 7
48 c9 69 14 74 76 70 l54 -3 10 -55 10 -55 46 -3 46 -3 -56 238 -56 238 -57 3
c-53 3 -58 1 -63 -20z m91 -215 l6 -43 -36 0 c-42 0 -42 -3 -19 110 l17 85 13
-55 c7 -30 15 -74 19 -97z"/>
<path d="M3030 8156 l0 -35 53 -3 52 -3 3 -202 2 -203 45 0 45 0 0 205 0 205
50 0 50 0 0 35 0 35 -150 0 -150 0 0 -34z"/>
<path d="M3380 7950 l0 -241 43 3 42 3 1 105 2 105 56 3 56 3 0 -111 0 -110
45 0 45 0 0 240 0 240 -45 0 -45 0 0 -95 0 -95 -55 0 -54 0 -3 93 -3 92 -42 3
-43 3 0 -241z"/>
<path d="M4470 7940 l0 -230 30 0 30 0 0 110 0 110 75 0 75 0 0 -110 0 -110
30 0 30 0 0 230 0 230 -30 0 -30 0 0 -95 0 -95 -75 0 -75 0 0 95 0 95 -30 0
-30 0 0 -230z"/>
<path d="M4907 8163 c-3 -5 -28 -100 -56 -213 -29 -113 -54 -213 -57 -223 -5
-15 -1 -18 22 -15 22 2 30 10 37 38 4 19 13 52 18 73 l10 38 62 -3 62 -3 16
-70 c14 -64 18 -70 42 -73 16 -2 27 2 27 8 0 7 -25 111 -57 231 l-56 219 -33
0 c-18 0 -35 -3 -37 -7z m56 -135 c10 -46 20 -93 23 -105 6 -22 3 -23 -46 -23
-49 0 -52 1 -46 23 3 12 13 59 23 105 9 45 20 82 23 82 3 0 14 -37 23 -82z"/>
<path d="M5060 8150 c0 -18 7 -20 55 -20 l55 0 0 -210 0 -210 25 0 25 0 2 208
3 207 53 3 c44 3 52 6 52 23 0 18 -8 19 -135 19 -128 0 -135 -1 -135 -20z"/>
<path d="M5380 7940 l0 -230 30 0 30 0 0 105 0 105 48 0 c65 0 82 -19 82 -92
0 -90 9 -118 36 -118 23 0 24 3 24 68 0 80 -15 139 -39 153 -16 10 -15 14 11
39 23 23 28 37 28 75 0 56 -20 97 -55 113 -14 7 -64 12 -110 12 l-85 0 0 -230z
m175 165 c27 -26 32 -63 14 -98 -17 -32 -28 -37 -81 -37 l-48 0 0 80 0 80 45
0 c35 0 52 -6 70 -25z"/>
<path d="M5710 7940 l0 -231 112 3 c97 3 113 5 116 20 3 15 -8 18 -85 20 l-88
3 -3 88 -3 87 81 0 c79 0 80 0 80 25 0 25 -1 25 -80 25 l-80 0 0 75 0 75 85 0
c78 0 85 2 85 20 0 19 -7 20 -110 20 l-110 0 0 -230z"/>
<path d="M6000 7941 l0 -231 73 0 c51 0 82 5 107 19 100 53 122 305 35 400
-33 36 -34 36 -124 39 l-91 4 0 -231z m150 176 c43 -21 60 -71 60 -172 0 -115
-21 -167 -74 -185 -20 -6 -46 -10 -58 -8 -23 3 -23 4 -26 191 l-2 187 37 0
c21 0 49 -6 63 -13z"/>
<path d="M6456 8149 c-23 -18 -26 -27 -26 -85 l0 -64 145 0 145 0 0 25 c0 24
-2 25 -65 25 -68 0 -78 8 -52 43 7 10 30 17 62 19 45 3 50 5 53 29 3 26 3 26
-55 21 -32 -2 -66 -9 -76 -14 -12 -6 -24 -4 -39 7 -31 21 -60 19 -92 -6z m75
-39 c11 -6 19 -21 19 -35 0 -22 -4 -25 -40 -25 -36 0 -40 3 -40 25 0 13 8 29
18 34 21 13 20 13 43 1z"/>
<path d="M7120 8031 l-225 -57 -3 -37 c-2 -20 -1 -37 2 -37 6 0 422 -98 449
-106 13 -4 17 1 17 20 0 26 1 26 -110 53 -35 9 -35 10 -38 70 -3 69 -10 62 91
84 53 11 57 14 57 41 0 15 -3 28 -7 27 -5 0 -109 -27 -233 -58z m50 -97 c0
-53 2 -52 -130 -20 l-95 22 105 26 c58 14 108 23 113 21 4 -2 7 -24 7 -49z"/>
<path d="M7520 7991 c0 -43 -4 -41 140 -90 33 -11 49 -21 40 -24 -8 -3 -51
-18 -95 -34 l-80 -28 -3 -43 c-2 -23 -1 -42 1 -42 3 0 64 25 137 55 125 52
137 55 216 55 l84 0 0 40 0 40 -84 0 c-79 0 -91 3 -216 55 -73 30 -134 55
-136 55 -2 0 -4 -18 -4 -39z"/>
<path d="M11060 7970 l0 -29 245 -3 245 -3 0 33 0 32 -245 0 -245 0 0 -30z"/>
<path d="M10470 7948 l0 -44 153 -33 c152 -33 205 -50 159 -51 -12 0 -88 -14
-167 -31 l-145 -32 0 -43 c0 -24 2 -44 4 -44 3 0 202 52 389 101 36 10 37 11
37 58 l0 48 -201 52 c-110 29 -207 55 -215 58 -11 4 -14 -5 -14 -39z"/>
<path d="M6430 7885 l0 -75 145 0 145 0 0 75 c0 73 -1 75 -25 75 -23 0 -25 -3
-25 -50 l0 -50 -40 0 -40 0 0 45 c0 41 -2 45 -25 45 -23 0 -25 -4 -25 -45 0
-45 0 -45 -35 -45 l-35 0 0 50 c0 43 -3 50 -20 50 -18 0 -20 -7 -20 -75z"/>
<path d="M3909 7901 c-28 -28 -29 -33 -29 -120 l0 -91 216 0 215 0 -3 33 -3
32 -92 3 -93 3 0 33 c0 49 25 66 97 66 80 0 93 6 93 41 l0 29 -70 0 c-72 0
-140 -20 -140 -40 0 -7 -14 0 -31 14 -24 20 -41 26 -81 26 -41 0 -54 -5 -79
-29z m138 -53 c7 -6 13 -28 13 -49 l0 -39 -65 0 -65 0 0 33 c0 35 15 61 40 70
19 7 61 -1 77 -15z"/>
<path d="M11060 7735 l0 -145 25 0 c22 0 24 4 27 56 l3 56 218 -2 217 -1 0 36
0 35 -220 0 -220 0 0 55 c0 52 -1 55 -25 55 l-25 0 0 -145z"/>
<path d="M6924 7756 c-34 -34 -34 -35 -34 -125 l0 -91 235 0 235 0 0 30 0 30
-100 0 -100 0 0 33 c0 55 -19 105 -51 131 -25 22 -41 26 -91 26 -55 0 -63 -3
-94 -34z m161 -41 c19 -18 25 -35 25 -70 l0 -45 -90 0 -90 0 0 45 c0 62 32 95
90 95 30 0 47 -6 65 -25z"/>
<path d="M6474 7766 c-38 -17 -44 -32 -44 -102 l0 -54 145 0 145 0 0 25 c0 24
-3 25 -60 25 -57 0 -60 1 -60 25 0 40 -21 73 -53 85 -37 12 -35 12 -73 -4z
m80 -62 c14 -36 7 -44 -39 -44 -40 0 -45 2 -45 23 0 31 7 37 46 37 20 0 34 -6
38 -16z"/>
<path d="M7768 7703 c-15 -9 -44 -46 -64 -81 -43 -73 -65 -89 -101 -73 -34 16
-29 61 10 79 22 11 27 20 27 48 0 38 -17 44 -65 22 -52 -23 -72 -116 -40 -178
20 -38 43 -50 99 -50 55 0 96 31 131 101 26 51 49 69 87 69 55 0 68 -69 19
-98 -21 -12 -30 -26 -33 -50 -2 -18 -2 -35 1 -36 17 -9 73 18 96 46 24 29 27
38 23 95 -3 52 -9 68 -30 90 -35 34 -119 43 -160 16z"/>
<path d="M10673 7637 l-203 -51 0 -53 c0 -46 3 -53 23 -58 12 -3 104 -25 205
-50 100 -25 187 -45 192 -45 6 0 10 18 10 39 0 39 -1 40 -43 46 -63 10 -69 15
-65 70 l3 49 50 11 c50 10 50 10 53 53 2 30 -1 42 -10 41 -7 -1 -104 -24 -215
-52z m55 -105 c4 -36 -8 -39 -88 -22 -100 22 -99 22 -15 40 44 9 85 16 90 15
6 -1 11 -16 13 -33z"/>
<path d="M11320 7566 c-113 -29 -217 -56 -232 -59 -25 -7 -28 -12 -28 -50 l0
-42 245 -60 245 -60 0 31 c0 32 -1 32 -75 49 l-75 16 0 64 0 64 38 11 c20 5
54 13 75 16 34 6 37 9 37 40 0 21 -5 34 -12 33 -7 0 -105 -24 -218 -53z m30
-106 c0 -59 4 -59 -130 -27 l-95 23 105 26 c58 14 108 26 113 27 4 1 7 -21 7
-49z"/>
<path d="M6430 7520 c0 -44 -6 -41 115 -64 78 -15 74 -19 -37 -36 l-78 -13 0
-38 0 -39 146 0 c145 0 145 0 142 23 -3 21 -6 22 -113 20 -123 -1 -115 8 23
27 85 12 92 15 92 36 0 26 0 26 -135 51 l-100 18 118 3 c116 3 118 3 115 25
-3 21 -7 22 -145 25 l-143 3 0 -41z"/>
<path d="M8168 7514 c-39 -21 -56 -81 -37 -131 11 -29 29 -46 74 -74 63 -38
81 -64 71 -103 -12 -48 -77 -42 -90 9 -5 20 -13 25 -36 25 -38 0 -44 -12 -26
-53 19 -46 51 -67 104 -67 80 0 122 40 122 116 0 53 -26 88 -91 125 -60 33
-75 54 -64 88 12 38 75 30 75 -9 0 -16 7 -20 35 -20 31 0 35 3 35 26 0 15 -12
38 -29 55 -24 23 -38 29 -73 29 -24 -1 -55 -7 -70 -16z"/>
<path d="M8447 7509 c-75 -58 -75 -310 0 -368 16 -13 40 -21 65 -21 94 0 131
57 131 205 0 148 -37 205 -131 205 -25 0 -49 -8 -65 -21z m110 -69 c7 -15 13
-62 13 -115 0 -99 -13 -138 -47 -143 -40 -6 -58 39 -58 149 0 82 3 100 19 118
25 28 57 23 73 -9z"/>
<path d="M8702 7328 l3 -203 30 0 30 0 5 85 5 85 29 -2 c43 -3 50 -16 56 -96
l5 -72 33 -3 32 -3 0 68 c0 47 -6 80 -18 104 -18 35 -18 37 0 59 23 28 24 102
2 135 -20 30 -69 45 -152 45 l-62 0 2 -202z m142 129 c27 -20 18 -77 -15 -96
-43 -24 -59 -10 -59 54 0 54 1 55 28 55 16 0 36 -6 46 -13z"/>
<path d="M8990 7325 l0 -205 95 0 c99 0 100 1 107 45 3 18 -3 20 -64 23 l-68
3 0 54 0 55 60 0 60 0 0 35 0 35 -60 0 -60 0 0 45 0 44 63 3 c62 3 62 3 62 33
l0 30 -97 3 -98 3 0 -206z"/>
<path d="M9242 7328 l3 -203 27 -3 27 -3 3 146 3 145 50 -142 50 -143 38 -3
37 -3 0 205 0 206 -30 0 -30 0 -1 -137 c0 -76 -3 -131 -6 -123 -3 8 -26 70
-50 138 l-45 122 -39 0 -39 0 2 -202z"/>
<path d="M9552 7328 l3 -203 94 -3 c100 -3 111 1 111 46 0 21 -4 22 -70 22
l-70 0 0 55 0 54 63 3 c62 3 62 3 62 33 0 30 0 30 -62 33 l-63 3 0 44 0 45 65
0 65 0 0 35 0 35 -100 0 -100 0 2 -202z"/>
<path d="M9849 7515 c-34 -18 -53 -66 -46 -111 8 -46 29 -70 90 -100 52 -27
73 -59 63 -98 -12 -48 -79 -41 -92 9 -5 21 -12 25 -41 25 -35 0 -35 -1 -29
-32 9 -51 57 -88 112 -88 83 0 124 39 124 120 0 48 -33 89 -100 126 -51 28
-66 50 -55 83 12 40 75 32 75 -9 0 -16 7 -20 35 -20 31 0 35 3 35 26 0 15 -12
38 -29 55 -24 23 -38 29 -73 29 -24 -1 -55 -7 -69 -15z"/>
<path d="M10109 7501 c-24 -24 -29 -38 -29 -76 0 -40 5 -51 34 -78 18 -18 52
-44 75 -59 35 -24 41 -33 41 -63 0 -62 -67 -69 -90 -9 -7 18 -17 24 -40 24
-35 0 -40 -22 -15 -71 19 -35 50 -49 111 -49 37 0 51 6 74 28 67 67 44 153
-55 213 -50 30 -61 41 -63 67 -4 40 24 58 56 36 12 -8 22 -22 22 -30 0 -9 11
-14 35 -14 38 0 40 3 24 48 -14 41 -49 62 -104 62 -38 0 -52 -5 -76 -29z"/>
<path d="M2495 7459 c-52 -46 -68 -112 -63 -258 6 -181 45 -245 149 -245 59 0
93 23 123 80 19 34 21 57 21 189 0 128 -3 156 -19 189 -25 50 -68 76 -128 76
-39 0 -54 -6 -83 -31z m147 -49 c39 -53 41 -308 3 -366 -21 -32 -58 -46 -90
-34 -43 16 -59 63 -63 190 -6 178 21 244 95 238 25 -2 42 -11 55 -28z"/>
<path d="M2820 7273 c0 -246 6 -273 70 -306 41 -21 118 -17 156 8 53 34 58 62
59 295 l0 215 -27 3 -27 3 -3 -219 c-3 -196 -5 -222 -21 -240 -36 -39 -113
-36 -134 6 -4 10 -10 114 -13 232 l-5 215 -27 3 -28 3 0 -218z"/>
<path d="M3162 7463 c3 -27 6 -28 61 -31 l57 -3 0 -234 0 -235 25 0 25 0 0
235 0 235 60 0 60 0 0 30 0 30 -146 0 -145 0 3 -27z"/>
<path d="M3510 7225 l0 -265 30 0 30 0 0 120 0 120 48 0 c27 0 56 -6 66 -13
21 -15 34 -81 35 -169 l1 -58 31 0 c30 0 31 2 25 31 -3 17 -6 64 -6 104 0 64
-3 77 -25 104 l-26 30 25 24 c44 44 47 138 5 191 -25 32 -75 46 -166 46 l-73
0 0 -265z m193 184 c15 -19 18 -34 14 -72 -6 -63 -23 -79 -91 -85 l-56 -4 0
97 0 97 57 -4 c44 -4 61 -10 76 -29z"/>
<path d="M3951 7453 c-6 -21 -33 -134 -61 -251 -28 -117 -54 -220 -57 -228 -4
-10 3 -14 25 -14 30 0 31 2 50 83 l19 82 69 0 69 0 19 -82 c18 -80 19 -83 47
-83 17 0 29 5 29 13 0 6 -29 125 -63 262 l-63 250 -37 3 c-34 3 -36 1 -46 -35z
m99 -265 c0 -5 -25 -8 -55 -8 -30 0 -55 3 -55 6 0 3 6 32 14 63 8 31 20 83 27
116 l12 60 28 -115 c16 -63 29 -118 29 -122z"/>
<path d="M4276 7460 c-60 -53 -88 -191 -67 -328 18 -117 48 -161 118 -176 37
-9 100 15 110 41 6 15 8 14 13 -7 4 -16 14 -26 28 -28 22 -3 22 -2 22 142 l0
146 -75 0 c-73 0 -75 -1 -75 -25 0 -23 4 -25 45 -25 l45 0 0 -62 c0 -74 -15
-108 -55 -127 -39 -19 -73 0 -99 54 -28 56 -29 239 -3 308 20 52 40 67 86 67
32 0 71 -39 71 -71 0 -14 7 -19 30 -19 34 0 37 13 16 64 -22 52 -60 76 -122
76 -45 0 -59 -5 -88 -30z"/>
<path d="M4600 7225 l0 -265 119 0 c119 0 119 0 123 25 l5 25 -98 0 -99 0 0
100 0 100 90 0 c89 0 90 0 90 25 0 24 -2 24 -87 27 l-88 3 0 84 0 83 90 2 c89
1 90 1 90 26 l0 25 -117 3 -118 3 0 -266z"/>
<path d="M5120 7391 l0 -101 50 0 c38 0 50 4 50 15 0 10 -10 15 -30 15 l-29 0
-3 82 c-3 70 -6 83 -20 86 -16 3 -18 -7 -18 -97z"/>
<path d="M5246 7482 c-3 -3 -6 -47 -6 -99 l0 -93 55 0 c42 0 55 3 55 15 0 10
-10 15 -30 15 l-29 0 -3 82 c-2 67 -6 82 -20 84 -9 1 -19 -1 -22 -4z"/>
<path d="M5409 7485 c0 0 -2 -8 -4 -17 -2 -12 3 -18 16 -18 17 0 19 -8 19 -80
0 -79 0 -80 25 -80 25 0 25 1 25 80 0 73 2 80 20 80 11 0 20 6 20 14 0 12 -53
21 -121 21z"/>
<path d="M5550 7389 l0 -99 55 0 c42 0 55 3 55 15 0 10 -11 15 -35 15 -31 0
-35 3 -35 25 0 21 5 25 30 25 23 0 30 4 30 20 0 16 -7 20 -30 20 -23 0 -30 4
-30 20 0 16 7 20 34 20 27 0 34 4 32 18 -2 13 -14 17 -54 18 l-52 2 0 -99z"/>
<path d="M5687 7484 c-4 -4 -7 -49 -7 -101 0 -86 1 -93 20 -93 18 0 20 7 21
58 1 31 3 46 6 32 13 -86 14 -90 33 -90 15 0 20 12 28 63 l9 62 2 -62 c1 -56
3 -63 21 -63 19 0 20 7 20 100 0 100 0 100 -25 100 -29 0 -45 -26 -45 -71 0
-46 -18 -24 -22 26 -3 34 -7 40 -28 43 -14 2 -29 0 -33 -4z"/>
<path d="M5875 7482 c-3 -3 -5 -47 -5 -99 0 -93 0 -93 25 -93 22 0 25 4 25 34
0 30 4 35 31 41 35 8 55 41 45 79 -5 19 -16 28 -44 35 -40 10 -69 11 -77 3z
m73 -60 c2 -15 -2 -22 -12 -22 -11 0 -16 9 -16 26 0 31 23 28 28 -4z"/>
<path d="M6020 7391 l0 -101 55 0 c42 0 55 3 55 15 0 10 -11 15 -35 15 -31 0
-35 3 -35 25 0 21 5 25 30 25 23 0 30 4 30 20 0 16 -7 20 -31 20 -44 0 -36 34
9 38 25 3 32 8 30 20 -2 13 -16 18 -56 20 l-52 4 0 -101z"/>
<path d="M6157 7483 c-4 -3 -7 -48 -7 -100 0 -93 0 -93 25 -93 23 0 25 4 25
41 0 52 24 48 28 -4 3 -31 7 -37 26 -37 22 0 22 3 16 47 -5 28 -3 57 3 70 15
34 -4 69 -43 77 -42 8 -65 8 -73 -1z m68 -58 c0 -10 -6 -20 -12 -22 -8 -3 -13
5 -13 22 0 17 5 25 13 23 6 -3 12 -13 12 -23z"/>
<path d="M1870 7380 l0 -100 195 0 195 0 0 100 0 100 -30 0 -30 0 0 -65 0 -65
-55 0 -55 0 0 60 c0 60 0 60 -30 60 -29 0 -29 -1 -32 -62 l-3 -61 -45 0 -45 0
-3 66 c-3 67 -3 67 -32 67 l-30 0 0 -100z"/>
<path d="M5040 7385 c0 -95 0 -95 25 -95 25 0 25 0 25 95 0 95 0 95 -25 95
-25 0 -25 0 -25 -95z"/>
<path d="M6890 7412 c0 -45 -8 -41 205 -92 72 -16 141 -33 155 -36 18 -5 -5
-13 -85 -30 -60 -12 -146 -31 -190 -42 l-80 -19 -3 -41 -3 -42 235 0 236 0 0
25 0 25 -202 1 -203 1 200 43 c110 25 201 44 203 45 2 0 2 12 0 27 -2 22 -10
29 -38 35 -19 4 -111 26 -205 47 l-170 40 208 0 207 1 0 25 0 25 -235 0 -235
0 0 -38z"/>
<path d="M7790 7409 c-38 -16 -58 -38 -92 -101 -32 -61 -65 -81 -97 -61 -35
22 -20 83 20 83 15 0 19 8 19 40 0 44 -5 47 -54 26 -48 -20 -66 -51 -66 -113
0 -44 5 -58 29 -85 26 -29 36 -33 78 -33 65 0 94 21 133 94 37 68 74 92 115
73 44 -20 28 -86 -26 -104 -11 -4 -14 -16 -11 -42 5 -40 9 -42 57 -22 42 18
65 61 65 120 0 81 -33 121 -107 131 -21 2 -49 0 -63 -6z"/>
<path d="M10508 7311 c-33 -29 -33 -31 -36 -130 l-4 -101 216 0 216 0 0 40 0
40 -91 0 -90 0 3 37 c4 48 31 63 116 63 l62 0 0 41 0 42 -81 -6 c-59 -4 -89
-11 -108 -25 l-27 -20 -27 24 c-42 36 -106 33 -149 -5z m130 -63 c7 -7 12 -29
12 -50 l0 -38 -60 0 -60 0 0 32 c0 17 7 40 17 50 18 20 73 24 91 6z"/>
<path d="M11060 7175 l0 -145 25 0 c22 0 24 4 27 58 l3 57 218 3 217 2 0 30 0
30 -220 0 -220 0 0 55 c0 52 -1 55 -25 55 l-25 0 0 -145z"/>
<path d="M6676 7292 c-3 -3 -6 -27 -6 -54 l0 -48 -40 0 -40 0 0 51 c0 47 -2
50 -22 47 -20 -3 -23 -10 -26 -51 -3 -48 -4 -48 -35 -45 -31 3 -32 5 -35 51
-3 39 -6 47 -23 47 -17 0 -19 -7 -19 -75 l0 -75 145 0 145 0 0 74 c0 65 -2 74
-19 79 -11 3 -22 2 -25 -1z"/>
<path d="M1870 7180 l0 -29 132 -3 133 -3 -133 -48 -132 -49 0 -39 0 -39 195
0 195 0 0 30 0 30 -137 1 -138 0 95 35 c199 72 180 61 180 105 l0 39 -195 0
-195 0 0 -30z"/>
<path d="M5052 7148 c-22 -22 -14 -65 16 -87 47 -36 53 -42 49 -54 -6 -19 -39
-21 -49 -3 -11 19 -38 21 -38 3 0 -38 80 -63 108 -35 7 7 12 27 12 45 0 27 -7
37 -40 58 -22 14 -40 31 -40 39 0 20 30 29 36 11 4 -8 15 -15 25 -15 22 0 23
4 9 31 -12 22 -68 27 -88 7z"/>
<path d="M5180 7060 l0 -100 50 0 c37 0 50 4 50 14 0 9 -12 16 -32 18 l-33 3
-3 83 c-2 64 -6 82 -17 82 -12 0 -15 -19 -15 -100z"/>
<path d="M5306 7138 c-19 -27 -21 -113 -3 -148 24 -48 89 -39 107 16 14 42 8
117 -10 139 -19 23 -76 19 -94 -7z m69 -78 c0 -58 -2 -65 -20 -65 -17 0 -20 8
-23 54 -4 65 2 84 25 79 15 -3 18 -14 18 -68z"/>
<path d="M5435 7138 c3 -13 12 -56 20 -97 9 -41 17 -77 20 -79 13 -13 34 12
40 50 12 69 22 77 29 22 15 -104 43 -99 67 12 22 98 23 114 5 114 -16 0 -21
-13 -31 -85 -8 -55 -9 -55 -25 28 -9 45 -15 57 -28 55 -11 -2 -20 -21 -28 -63
-11 -64 -19 -59 -29 18 -5 38 -10 47 -26 47 -15 0 -18 -5 -14 -22z"/>
<path d="M5710 7060 l0 -100 38 0 c50 0 82 23 82 60 0 16 -4 31 -9 35 -5 3 -7
21 -4 40 8 48 -9 65 -63 65 l-44 0 0 -100z m75 45 c0 -31 -32 -31 -37 0 -5 22
-2 26 16 23 13 -2 21 -10 21 -23z m3 -82 c-4 -40 -34 -42 -40 -4 -4 27 -2 31
19 31 21 0 24 -4 21 -27z"/>
<path d="M5850 7088 c0 -94 14 -122 62 -126 53 -5 68 22 68 120 0 71 -2 78
-20 78 -17 0 -19 -8 -22 -82 -3 -75 -5 -83 -23 -83 -18 0 -20 8 -23 83 -3 74
-5 82 -22 82 -18 0 -20 -7 -20 -72z"/>
<path d="M6010 7059 c0 -90 2 -100 18 -97 13 2 17 14 18 43 0 38 3 41 34 37 6
-1 10 -20 10 -42 0 -33 3 -40 20 -40 22 0 22 -1 11 58 -6 28 -5 54 2 72 16 42
-12 70 -70 70 l-43 0 0 -101z m78 43 c3 -17 -2 -22 -17 -22 -16 0 -21 6 -21
26 0 33 33 30 38 -4z"/>
<path d="M6152 7063 c3 -84 6 -98 21 -101 15 -3 17 5 18 65 l1 68 22 -65 c17
-50 28 -66 44 -68 21 -3 22 0 22 97 0 83 -3 101 -15 101 -12 0 -15 -14 -15
-62 0 -70 -9 -68 -35 10 -14 44 -20 52 -41 52 l-25 0 3 -97z"/>
<path d="M6430 7025 c0 -78 2 -85 20 -85 16 0 20 7 20 30 l0 30 125 0 125 0 0
25 0 25 -125 0 -125 0 0 30 c0 23 -4 30 -20 30 -18 0 -20 -7 -20 -85z"/>
<path d="M7520 7060 l0 -40 220 0 220 0 0 40 0 40 -220 0 -220 0 0 -40z"/>
<path d="M6890 6990 l0 -30 235 0 235 0 0 30 0 30 -235 0 -235 0 0 -30z"/>
<path d="M10660 6940 l0 -70 29 0 c25 0 30 4 33 28 3 25 6 27 47 24 56 -4 73
-17 69 -56 -5 -47 -35 -57 -159 -54 -89 3 -110 6 -128 22 -30 27 -24 67 12 84
22 11 27 20 27 48 0 29 -4 34 -22 34 -13 0 -37 -9 -55 -20 -53 -32 -66 -125
-27 -187 52 -83 304 -98 387 -23 28 25 32 35 32 78 0 35 -6 56 -19 71 -17 19
-17 21 -3 21 13 0 17 9 17 35 l0 35 -120 0 -120 0 0 -70z"/>
<path d="M8120 6820 l0 -160 30 0 30 0 0 160 0 160 -30 0 -30 0 0 -160z"/>
<path d="M8240 6819 l0 -160 28 3 c26 3 27 5 30 71 3 63 4 67 26 67 34 0 44
-18 48 -80 3 -52 5 -55 31 -58 27 -3 27 -3 27 55 0 37 -6 67 -16 81 -14 20
-14 24 0 44 9 12 16 39 16 59 0 57 -34 79 -121 79 l-69 0 0 -161z m114 108
c12 -9 17 -23 14 -42 -3 -26 -8 -30 -35 -33 -33 -3 -33 -3 -33 42 0 38 3 46
18 46 10 0 26 -6 36 -13z"/>
<path d="M8480 6819 l0 -160 28 3 c26 3 27 5 30 71 3 63 4 67 26 67 34 0 44
-18 48 -80 3 -52 5 -55 31 -58 27 -3 27 -3 27 55 0 37 -6 67 -16 81 -14 20
-14 24 0 44 9 12 16 39 16 59 0 57 -34 79 -121 79 l-69 0 0 -161z m114 108
c12 -9 17 -23 14 -42 -3 -26 -8 -30 -35 -33 -33 -3 -33 -3 -33 42 0 38 3 46
18 46 10 0 26 -6 36 -13z"/>
<path d="M8720 6819 l0 -160 28 3 27 3 3 158 3 157 -31 0 -30 0 0 -161z"/>
<path d="M8810 6955 c0 -22 4 -25 35 -25 l35 0 0 -135 0 -135 30 0 30 0 0 135
0 135 35 0 c31 0 35 3 35 25 l0 25 -100 0 -100 0 0 -25z"/>
<path d="M9032 6843 c-18 -76 -35 -148 -39 -161 -5 -21 -3 -23 23 -20 24 2 31
9 38 41 9 35 12 37 48 37 33 0 38 -3 44 -27 10 -49 13 -53 37 -53 13 0 26 2
29 5 3 3 -12 74 -32 158 l-36 152 -40 3 -40 3 -32 -138z m98 -45 c0 -5 -11 -8
-25 -8 -29 0 -30 7 -13 82 l11 53 13 -60 c7 -33 13 -63 14 -67z"/>
<path d="M9250 6819 l0 -162 68 5 c80 6 108 21 123 66 9 27 7 39 -8 71 -16 33
-17 42 -6 70 30 72 -8 111 -109 111 l-68 0 0 -161z m111 111 c19 -11 27 -54
11 -64 -5 -3 -20 -7 -35 -10 -26 -4 -27 -3 -27 40 0 47 11 55 51 34z m13 -136
c32 -32 11 -84 -34 -84 -29 0 -30 1 -30 50 0 46 2 50 24 50 14 0 32 -7 40 -16z"/>
<path d="M9490 6819 l0 -160 28 3 27 3 3 158 3 157 -31 0 -30 0 0 -161z"/>
<path d="M9604 6966 c-3 -7 -4 -78 -2 -157 l3 -144 81 -3 c80 -3 82 -2 86 22
5 24 3 25 -51 28 l-56 3 -3 133 -3 132 -25 0 c-13 0 -27 -6 -30 -14z"/>
<path d="M9810 6819 l0 -160 28 3 27 3 3 158 3 157 -31 0 -30 0 0 -161z"/>
<path d="M9900 6955 c0 -22 4 -25 35 -25 l35 0 0 -136 0 -135 28 3 27 3 3 133
3 132 34 0 c31 0 35 3 35 25 l0 25 -100 0 -100 0 0 -25z"/>
<path d="M10120 6976 c0 -3 18 -47 40 -97 33 -76 40 -104 40 -156 l0 -63 30 0
30 0 0 61 c0 48 8 79 40 154 22 52 40 96 40 99 0 4 -13 6 -29 6 -27 0 -31 -5
-51 -66 -12 -36 -25 -62 -28 -59 -4 3 -16 32 -28 63 -19 51 -24 57 -52 60 -18
2 -32 1 -32 -2z"/>
<path d="M11060 6950 l0 -30 245 0 245 0 0 30 0 30 -245 0 -245 0 0 -30z"/>
<path d="M7527 6944 c-4 -4 -7 -22 -7 -41 l0 -33 85 0 85 0 0 -55 0 -55 -85 0
-85 0 0 -35 0 -35 220 0 220 0 0 35 0 35 -100 0 -100 0 0 55 0 55 101 0 100 0
-3 38 -3 37 -211 3 c-115 1 -213 -1 -217 -4z"/>
<path d="M1870 6865 l0 -35 195 0 195 0 0 35 0 35 -195 0 -195 0 0 -35z"/>
<path d="M11122 6825 c-46 -20 -62 -65 -62 -170 l0 -85 245 0 245 0 0 30 0 30
-110 0 -110 0 0 48 c0 76 12 86 122 92 l93 5 3 31 3 32 -88 -5 c-97 -5 -138
-17 -148 -41 -5 -12 -11 -10 -35 13 -35 34 -107 43 -158 20z m114 -59 c27 -8
44 -46 44 -96 l0 -40 -85 0 -85 0 0 48 c0 85 39 112 126 88z"/>
<path d="M2200 6725 l0 -65 -165 0 -165 0 0 -35 0 -35 195 0 195 0 0 100 0
100 -30 0 -30 0 0 -65z"/>
<path d="M4385 6761 c-85 -39 -127 -115 -146 -259 -14 -113 0 -268 32 -343 42
-97 131 -147 237 -135 147 17 207 109 219 331 12 234 -47 382 -164 414 -57 16
-133 13 -178 -8z m148 -111 c42 -34 52 -80 52 -250 0 -145 -2 -158 -25 -205
-41 -82 -107 -86 -152 -9 -37 64 -47 286 -17 398 21 78 87 109 142 66z"/>
<path d="M6545 6765 c-50 -18 -108 -82 -130 -143 -25 -72 -35 -201 -25 -318
15 -167 59 -241 159 -271 60 -17 144 -12 189 11 58 31 105 102 114 171 l3 30
-65 3 -65 3 -15 -48 c-17 -55 -51 -80 -93 -69 -67 16 -87 79 -87 266 0 147 11
208 46 245 46 49 123 19 142 -55 l8 -35 65 0 64 0 -3 35 c-5 46 -27 99 -55
129 -52 56 -164 77 -252 46z"/>
<path d="M2626 6753 c-3 -10 -43 -175 -89 -366 -61 -254 -81 -350 -72 -353 7
-3 37 -4 66 -2 l54 3 18 80 c11 44 21 86 23 93 2 8 30 12 92 12 l89 0 13 -72
c21 -120 19 -118 95 -118 49 0 65 3 65 14 0 7 -36 162 -80 342 -45 181 -83
341 -87 357 -5 27 -6 27 -94 27 -75 0 -88 -3 -93 -17z m118 -248 c15 -71 29
-140 31 -152 5 -22 3 -23 -60 -23 -58 0 -66 2 -61 18 3 9 17 79 32 155 15 75
28 136 29 135 2 -2 14 -61 29 -133z"/>
<path d="M3052 6403 l3 -368 58 0 58 0 -1 264 c0 146 1 263 4 260 2 -2 45
-114 95 -248 51 -134 96 -252 102 -262 8 -16 22 -19 79 -19 l70 0 0 370 0 370
-60 0 -60 0 -1 -247 0 -248 -18 45 c-10 25 -53 136 -96 248 l-78 202 -79 0
-78 0 2 -367z"/>
<path d="M3660 6400 l0 -371 58 3 57 3 0 268 c0 147 1 264 3 260 1 -5 47 -125
101 -268 l97 -260 75 0 74 0 3 368 2 367 -66 0 -67 0 5 -252 c2 -138 1 -243
-4 -232 -4 10 -48 123 -97 249 l-88 230 -77 3 -76 3 0 -371z"/>
<path d="M4749 6748 c5 -13 49 -115 97 -228 l89 -205 3 -142 3 -143 64 0 64 0
3 143 3 142 94 215 c51 118 95 221 98 228 4 10 -11 12 -68 10 l-73 -3 -56
-157 c-30 -87 -58 -158 -61 -158 -3 0 -13 25 -23 55 -9 30 -34 101 -55 157
l-39 103 -76 3 c-75 3 -76 3 -67 -20z"/>
<path d="M5297 6408 c-48 -200 -87 -367 -87 -371 0 -4 30 -7 67 -5 l67 3 7 35
c4 19 12 61 19 93 l11 57 89 0 89 0 11 -57 c7 -32 15 -74 19 -93 l7 -35 63 -3
c35 -2 67 1 71 5 5 4 -31 170 -80 368 l-87 360 -90 3 -89 3 -87 -363z m206 82
c15 -74 27 -141 27 -148 0 -8 -19 -12 -60 -12 -44 0 -60 4 -60 14 0 7 11 68
25 134 14 66 25 131 25 143 0 51 18 -4 43 -131z"/>
<path d="M5810 6400 l0 -371 58 3 57 3 0 262 c0 144 2 259 5 257 2 -3 47 -120
101 -262 l96 -257 74 0 74 0 3 368 2 367 -66 0 -67 0 5 -252 c3 -139 3 -248 1
-243 -2 6 -45 118 -96 250 l-93 240 -77 3 -77 3 0 -371z"/>
<path d="M6942 6403 l3 -368 189 -3 c104 -1 193 1 197 5 4 5 11 32 15 61 l7
52 -137 0 -136 0 0 105 0 105 120 0 120 0 0 60 0 60 -120 0 -120 0 0 85 0 85
118 1 c64 1 120 1 125 0 4 0 7 26 7 59 l0 60 -195 0 -195 0 2 -367z"/>
<path d="M10531 6647 c-42 -21 -65 -62 -65 -117 0 -58 22 -94 75 -125 49 -29
245 -29 303 -1 64 32 86 127 40 177 -16 18 -16 19 -1 19 12 0 17 9 17 30 l0
30 -120 0 -120 0 0 -70 0 -70 30 0 c27 0 30 3 30 30 0 28 2 30 41 30 56 0 79
-14 79 -50 0 -50 -36 -65 -155 -65 -120 0 -155 15 -155 66 0 25 6 33 30 42 26
10 30 16 30 49 0 42 -15 48 -59 25z"/>
<path d="M2042 6507 l-173 -41 3 -45 3 -46 180 -42 c99 -23 186 -42 193 -43 7
0 12 13 12 34 0 33 -2 35 -45 42 l-45 6 0 48 0 48 45 6 c43 7 45 9 45 42 0 43
3 43 -218 -9z m58 -88 c0 -30 -1 -31 -32 -25 -18 4 -50 9 -70 13 -52 8 -47 18
15 30 86 17 87 17 87 -18z"/>
<path d="M7510 6505 c0 -2 24 -91 54 -197 30 -106 59 -212 66 -236 l11 -43 56
3 56 3 64 225 c35 123 63 231 63 238 0 9 -13 12 -47 10 l-47 -3 -42 -179 c-42
-175 -54 -212 -54 -167 0 20 -43 211 -71 314 -10 36 -11 37 -59 37 -28 0 -50
-2 -50 -5z"/>
<path d="M7942 6273 l3 -238 133 -3 c101 -2 133 0 136 10 3 7 7 25 10 41 l6
27 -95 0 -95 0 0 70 0 70 85 0 85 0 0 35 0 35 -85 0 -85 0 0 55 0 54 88 3 87
3 0 35 0 35 -138 3 -137 3 2 -238z"/>
<path d="M8280 6504 c0 -4 27 -57 59 -118 l59 -111 -63 -117 c-34 -64 -60
-119 -57 -123 3 -3 24 -5 47 -5 l42 0 39 85 c22 47 42 85 45 85 3 0 23 -38 44
-85 l38 -85 48 0 c33 0 49 4 49 13 -1 6 -27 64 -60 127 l-59 115 57 105 c31
58 59 108 60 113 2 4 -18 7 -45 7 l-49 0 -38 -77 -38 -78 -39 78 -39 77 -50 0
c-28 0 -50 -3 -50 -6z"/>
<path d="M8761 6478 c-16 -54 -111 -424 -111 -436 0 -7 18 -12 45 -12 41 0 45
3 51 28 22 95 13 87 84 87 57 0 65 -2 68 -20 2 -11 8 -37 13 -57 9 -37 11 -38
53 -38 23 0 45 2 48 5 3 3 -23 110 -57 238 l-61 232 -61 3 -61 3 -11 -33z m92
-153 c10 -44 17 -84 17 -88 0 -4 -18 -7 -40 -7 -23 0 -40 5 -40 11 0 29 35
178 41 171 3 -4 13 -43 22 -87z"/>
<path d="M8990 6470 l0 -40 60 0 61 0 -1 -197 -2 -198 46 -3 46 -3 0 200 0
200 57 3 57 3 0 35 0 35 -162 3 -162 2 0 -40z"/>
<path d="M9380 6270 l0 -240 45 0 45 0 0 240 0 240 -45 0 -45 0 0 -240z"/>
<path d="M9654 6500 c-31 -12 -72 -65 -84 -108 -13 -48 -13 -196 1 -245 6 -22
26 -55 44 -75 33 -37 34 -37 115 -37 81 0 82 0 115 37 45 49 58 102 53 223 -4
112 -26 168 -78 198 -30 18 -129 22 -166 7z m120 -79 c42 -46 42 -256 0 -302
-24 -27 -70 -25 -89 5 -26 39 -39 148 -26 218 12 70 33 98 71 98 15 0 34 -8
44 -19z"/>
<path d="M9990 6270 l0 -240 40 0 40 0 2 172 3 172 59 -150 c78 -199 76 -196
134 -192 l47 3 0 235 0 235 -42 3 -42 3 -3 -157 -3 -158 -65 157 -64 157 -53
0 -53 0 0 -240z"/>
<path d="M11144 6483 c-12 -2 -34 -18 -50 -34 -27 -29 -29 -36 -32 -130 l-4
-99 246 0 246 0 0 30 0 30 -110 0 -110 0 0 48 c0 73 20 86 131 90 l89 4 0 32
0 32 -72 -4 c-106 -4 -133 -10 -153 -32 -18 -20 -19 -20 -39 -1 -37 35 -83 46
-142 34z m115 -89 c14 -18 21 -41 21 -70 l0 -44 -85 0 -85 0 0 50 c0 66 23 90
84 90 36 0 48 -5 65 -26z"/>
<path d="M10668 6298 l-198 -50 0 -53 0 -53 193 -46 c105 -26 202 -49 215 -52
20 -6 22 -3 22 34 l0 41 -55 11 -55 11 0 54 0 53 38 6 c70 13 72 15 72 57 0
31 -4 39 -17 38 -10 -1 -107 -24 -215 -51z m62 -104 l0 -37 -40 7 c-73 11
-145 29 -135 32 20 7 140 32 158 33 13 1 17 -7 17 -35z"/>
<path d="M1870 6220 l0 -29 132 -3 133 -3 -133 -48 -132 -49 0 -39 0 -39 195
0 195 0 0 30 0 30 -137 1 -138 0 95 35 c199 72 180 61 180 105 l0 39 -195 0
-195 0 0 -30z"/>
<path d="M11060 6080 l0 -30 245 0 245 0 0 30 0 30 -245 0 -245 0 0 -30z"/>
<path d="M1870 5860 l0 -100 195 0 195 0 0 100 0 100 -30 0 -30 0 0 -65 0 -65
-55 0 -55 0 0 60 0 60 -30 0 -30 0 0 -60 0 -60 -50 0 -50 0 0 65 0 65 -30 0
-30 0 0 -100z"/>
<path d="M6576 5849 c-214 -31 -354 -199 -411 -491 -23 -116 -30 -377 -16
-532 29 -310 110 -473 271 -550 60 -28 73 -31 170 -30 129 0 186 21 255 95 25
27 48 49 50 49 3 0 5 -17 5 -37 0 -83 0 -83 116 -83 l104 0 0 440 0 440 -242
-2 -243 -3 -3 -117 -3 -118 107 0 107 0 -5 -139 c-4 -125 -7 -143 -31 -192
-34 -68 -66 -91 -133 -97 -141 -12 -207 76 -235 316 -16 130 -6 483 16 582 39
178 126 259 250 236 71 -14 135 -103 135 -188 l0 -28 140 0 c160 0 148 -10
124 107 -41 201 -162 318 -355 343 -85 11 -92 11 -173 -1z"/>
<path d="M11944 5839 c-84 -24 -127 -146 -105 -296 18 -121 56 -163 148 -163
61 0 109 28 131 78 26 58 24 254 -3 306 -34 66 -100 96 -171 75z m77 -78 c22
-18 24 -28 27 -131 4 -118 -6 -163 -39 -181 -23 -12 -54 2 -69 31 -30 57 -23
242 11 279 24 26 40 26 70 2z"/>
<path d="M10070 5827 c0 -8 25 -109 55 -226 30 -117 55 -214 55 -217 0 -2 23
-4 50 -4 28 0 50 1 50 3 0 4 109 420 116 440 5 14 -1 17 -40 17 l-44 0 -21
-92 c-12 -51 -30 -131 -40 -178 -21 -96 -16 -105 -61 108 -16 79 -32 147 -35
153 -10 15 -85 11 -85 -4z"/>
<path d="M10440 5610 l0 -231 123 3 122 3 3 32 3 32 -83 3 -83 3 0 65 0 65 78
3 78 3 -3 32 -3 32 -78 3 -78 3 3 52 3 52 78 3 77 3 0 34 0 35 -120 0 -120 0
0 -230z"/>
<path d="M10730 5835 c0 -3 24 -54 54 -113 l54 -107 -54 -105 c-29 -58 -53
-111 -53 -118 -1 -9 11 -12 41 -10 l41 3 35 83 34 83 37 -83 37 -83 89 0 90 0
10 55 10 55 56 3 56 3 12 -61 12 -61 42 3 c23 2 41 8 41 13 -1 6 -25 108 -54
228 l-52 218 -56 -3 -55 -3 -51 -212 c-28 -116 -54 -214 -57 -217 -3 -3 -30
44 -59 105 l-54 111 52 104 c29 57 52 106 52 109 0 3 -20 5 -43 5 l-44 0 -28
-70 c-15 -38 -31 -70 -35 -70 -3 0 -20 32 -37 70 l-31 70 -46 0 c-25 0 -46 -2
-46 -5z m520 -257 c0 -5 -18 -8 -41 -8 -31 0 -40 3 -36 14 3 8 11 43 17 77 18
99 22 100 41 9 10 -47 18 -88 19 -92z"/>
<path d="M11350 5805 l0 -35 50 0 50 0 0 -195 0 -195 40 0 40 0 0 195 0 195
50 0 50 0 0 35 0 35 -140 0 -140 0 0 -35z"/>
<path d="M11680 5610 l0 -231 43 3 42 3 0 225 0 225 -42 3 -43 3 0 -231z"/>
<path d="M12210 5611 l0 -231 35 0 35 0 0 168 1 167 62 -165 63 -165 44 0 45
0 3 228 2 227 -41 0 -40 0 3 -149 c2 -82 1 -147 -2 -144 -3 2 -30 68 -60 146
l-56 142 -47 3 -47 3 0 -230z"/>
<path d="M4037 5583 c-31 -137 -111 -481 -177 -766 -66 -285 -120 -525 -120
-533 0 -12 22 -14 137 -12 l137 3 28 140 c15 77 33 164 39 193 l11 52 181 -2
182 -3 27 -140 c15 -77 33 -164 39 -192 l10 -53 146 0 145 0 -7 33 c-5 23
-310 1334 -350 1505 -5 22 -7 22 -188 22 l-182 0 -58 -247z m304 -360 c32
-166 59 -304 59 -307 0 -3 -59 -6 -131 -6 -119 0 -130 1 -125 18 8 29 104 524
112 577 8 60 18 79 22 45 2 -14 30 -161 63 -327z"/>
<path d="M4960 5050 l0 -780 126 0 126 0 -4 573 -3 573 75 -216 c42 -118 134
-376 205 -572 l130 -358 153 0 152 0 0 780 0 780 -126 0 -126 0 4 -542 3 -543
-26 80 c-15 44 -91 251 -169 460 -78 209 -155 417 -172 463 l-30 82 -159 0
-159 0 0 -780z"/>
<path d="M7360 5050 l0 -780 403 0 404 0 12 88 c7 48 15 102 18 120 l5 32
-281 0 -281 0 0 230 0 230 250 0 250 0 0 120 0 120 -250 0 -250 0 0 190 0 190
259 0 260 0 3 120 3 120 -402 0 -403 0 0 -780z"/>
<path d="M8370 5051 l0 -781 140 0 140 0 0 336 0 337 103 -5 c217 -12 234 -39
246 -398 5 -129 12 -243 16 -252 6 -16 23 -18 142 -18 l136 0 -8 43 c-3 23
-10 146 -15 272 -8 228 -15 277 -50 346 -19 36 -92 109 -110 109 -21 0 -9 18
20 30 73 30 143 146 159 265 25 178 -36 345 -155 424 -93 61 -118 65 -456 69
l-308 3 0 -780z m500 548 c62 -13 114 -55 131 -107 22 -63 16 -172 -12 -228
-36 -72 -87 -95 -229 -102 l-110 -5 0 227 0 226 85 0 c46 0 107 -5 135 -11z"/>
<path d="M9520 5799 c0 -20 4 -20 144 -17 80 2 142 1 140 -1 -2 -3 -66 -30
-142 -61 -124 -51 -137 -59 -140 -83 l-3 -27 180 0 c174 0 181 1 181 20 0 19
-7 20 -147 20 l-148 1 145 58 c131 53 145 62 148 85 l3 26 -180 0 c-176 0
-181 -1 -181 -21z"/>
<path d="M2430 5650 l0 -160 75 0 c59 0 75 3 75 15 0 10 -15 15 -56 17 l-57 3
0 55 0 55 52 3 c35 2 51 7 51 17 0 10 -16 15 -51 17 l-52 3 -1 47 -1 47 55 3
c43 2 56 7 58 21 3 15 -6 17 -72 17 l-76 0 0 -160z"/>
<path d="M2620 5651 c0 -88 4 -162 8 -165 23 -14 31 16 34 129 l3 120 45 -119
c32 -83 51 -121 65 -126 11 -4 23 -6 28 -3 4 2 7 76 7 164 0 152 -1 159 -20
159 -18 0 -20 -8 -22 -121 l-3 -122 -46 119 c-41 107 -48 119 -72 122 l-27 3
0 -160z"/>
<path d="M2870 5650 c0 -155 1 -160 21 -160 19 0 20 5 17 125 -2 68 0 121 3
117 4 -4 17 -60 29 -125 21 -108 25 -118 44 -115 18 3 24 19 48 126 14 68 28
126 31 128 2 2 2 -54 -1 -126 -5 -127 -4 -130 17 -130 21 0 21 3 21 161 l0
160 -27 -3 c-27 -3 -29 -8 -59 -128 -29 -120 -31 -123 -38 -85 -4 22 -17 79
-28 128 -19 85 -21 87 -49 87 l-29 0 0 -160z"/>
<path d="M3170 5647 c0 -152 1 -165 18 -163 15 3 17 18 17 162 0 143 -2 159
-17 162 -17 3 -18 -10 -18 -161z"/>
<path d="M3240 5790 c0 -16 7 -20 35 -20 l35 0 0 -139 c0 -110 3 -140 14 -144
8 -3 17 -3 20 0 3 4 6 69 6 145 l0 138 35 0 c28 0 35 4 35 20 0 19 -7 20 -90
20 -83 0 -90 -1 -90 -20z"/>
<path d="M3440 5807 c0 -2 18 -46 40 -97 33 -76 40 -105 40 -157 0 -56 2 -63
20 -63 18 0 20 7 20 59 0 48 8 79 40 152 22 51 40 96 40 101 0 4 -8 8 -19 8
-14 0 -25 -18 -46 -75 -15 -42 -30 -73 -33 -70 -3 3 -17 36 -32 73 -20 52 -30
68 -48 70 -12 2 -22 2 -22 -1z"/>
<path d="M1903 5676 c-26 -23 -28 -30 -31 -115 l-4 -91 196 0 196 0 0 35 0 35
-80 0 -80 0 0 35 c0 44 20 55 99 55 l61 0 0 35 0 35 -59 0 c-61 0 -110 -13
-122 -32 -5 -7 -16 -4 -34 11 -39 30 -105 29 -142 -3z m127 -65 c5 -11 10 -31
10 -45 0 -25 -3 -26 -55 -26 l-55 0 0 33 c0 42 15 57 57 57 22 0 36 -6 43 -19z"/>
<path d="M9600 5539 c-51 -14 -80 -51 -80 -103 0 -47 22 -76 73 -95 41 -16
191 -14 231 3 104 43 81 170 -35 195 -60 13 -141 13 -189 0z m220 -52 c20 -10
25 -20 25 -47 0 -30 -5 -38 -35 -52 -69 -35 -240 -17 -256 27 -17 43 15 76 86
89 39 7 152 -4 180 -17z"/>
<path d="M1985 5413 c-86 -23 -115 -65 -115 -167 l0 -66 195 0 195 0 0 70 c0
86 -16 121 -66 145 -37 17 -170 29 -209 18z m150 -73 c43 -10 75 -40 75 -71 0
-18 -9 -19 -140 -19 -140 0 -140 0 -140 23 0 13 6 31 13 41 23 31 116 44 192
26z"/>
<path d="M2430 5090 l0 -220 40 0 40 0 0 95 0 95 70 0 70 0 0 35 0 35 -70 0
-70 0 0 55 0 55 75 0 75 0 0 35 0 35 -115 0 -115 0 0 -220z"/>
<path d="M2710 5140 c0 -181 7 -217 49 -255 27 -24 124 -27 164 -6 49 26 57
62 57 256 l0 176 -37 -3 -38 -3 -5 -175 c-3 -96 -9 -181 -13 -187 -14 -21 -64
-15 -81 9 -13 18 -16 55 -16 190 l0 168 -40 0 -40 0 0 -170z"/>
<path d="M3060 5090 l0 -220 40 0 40 0 0 95 c0 92 1 95 23 95 12 0 33 -7 45
-16 19 -13 22 -24 22 -79 0 -85 5 -95 47 -95 l35 0 -4 89 c-2 69 -7 93 -21
109 -18 20 -18 21 1 42 40 43 38 122 -4 164 -29 28 -63 36 -155 36 l-69 0 0
-220z m174 117 c16 -44 -9 -81 -57 -85 l-37 -3 0 61 0 61 42 -3 c36 -3 44 -7
52 -31z"/>
<path d="M3350 5302 c0 -6 25 -70 55 -143 51 -122 55 -139 55 -211 l0 -78 40
0 40 0 0 86 c0 80 3 93 51 207 28 67 53 128 56 135 4 10 -5 13 -37 10 l-43 -3
-31 -92 c-17 -51 -33 -93 -36 -93 -3 0 -19 42 -36 93 l-30 92 -42 3 c-23 2
-42 -1 -42 -6z"/>
<path d="M9527 5263 c-4 -3 -7 -15 -7 -25 0 -17 12 -18 180 -18 l180 0 0 25 0
25 -173 0 c-96 0 -177 -3 -180 -7z"/>
<path d="M10090 5054 l0 -155 26 3 c26 3 27 5 26 66 l0 62 49 0 c45 0 49 2 49
24 0 23 -5 25 -47 28 -48 3 -48 3 -48 38 l0 35 53 3 c48 3 52 5 52 28 0 23 -2
24 -80 24 l-80 0 0 -156z"/>
<path d="M10280 5055 l0 -155 30 0 30 0 0 155 0 155 -30 0 -30 0 0 -155z"/>
<path d="M10417 5180 c-45 -52 -48 -201 -5 -255 14 -19 29 -25 57 -25 20 0 42
5 49 12 9 9 12 9 12 -1 0 -7 9 -11 23 -9 20 3 22 9 25 77 2 41 1 79 -1 85 -3
7 -23 10 -51 8 -37 -3 -46 -8 -46 -23 0 -12 7 -19 20 -19 15 0 20 -7 20 -29 0
-28 -22 -61 -40 -61 -22 0 -40 47 -40 107 0 101 33 151 69 106 9 -10 26 -22
39 -25 18 -5 22 -2 22 18 0 39 -33 64 -84 64 -37 0 -48 -5 -69 -30z"/>
<path d="M10620 5055 l0 -155 30 0 30 0 0 70 0 70 35 0 35 0 0 -70 0 -70 30 0
30 0 0 155 0 155 -30 0 -30 0 0 -60 0 -60 -35 0 -35 0 0 60 0 60 -30 0 -30 0
0 -155z"/>
<path d="M10840 5185 c0 -21 5 -25 30 -25 l30 0 0 -130 0 -130 30 0 30 0 0
130 0 130 30 0 c25 0 30 4 30 25 0 25 -1 25 -90 25 -89 0 -90 0 -90 -25z"/>
<path d="M11168 5193 c-31 -35 -38 -63 -38 -141 0 -66 4 -85 23 -113 19 -29
29 -34 69 -37 40 -3 48 1 71 27 54 65 42 252 -18 275 -33 12 -92 6 -107 -11z
m88 -48 c12 -19 15 -42 12 -100 -4 -80 -20 -111 -51 -99 -22 8 -32 45 -32 119
1 95 35 134 71 80z"/>
<path d="M11370 5055 l0 -155 25 0 c24 0 25 2 25 66 l0 65 33 -3 c32 -3 32 -4
37 -63 5 -57 7 -60 33 -63 26 -3 27 -2 27 50 0 29 -6 65 -14 79 -11 22 -11 29
0 44 22 30 17 83 -11 110 -21 22 -33 25 -90 25 l-65 0 0 -155z m97 109 c50
-14 35 -84 -17 -84 -28 0 -30 3 -30 38 0 52 5 57 47 46z"/>
<path d="M11680 5055 l0 -155 25 0 c24 0 25 2 25 65 l0 65 50 0 c47 0 50 2 50
25 0 23 -3 25 -50 25 l-50 0 0 40 0 40 55 0 c52 0 55 1 55 25 0 25 -1 25 -80
25 l-80 0 0 -155z"/>
<path d="M11870 5055 l0 -155 80 0 c79 0 80 0 80 25 0 23 -3 25 -50 25 l-50 0
0 130 0 130 -30 0 -30 0 0 -155z"/>
<path d="M12060 5055 l0 -155 25 0 25 0 0 155 0 155 -25 0 -25 0 0 -155z"/>
<path d="M12195 5184 c-45 -49 -48 -214 -4 -260 24 -26 66 -31 100 -14 13 7
19 7 19 0 0 -5 9 -10 20 -10 18 0 20 7 20 85 l0 85 -45 0 c-38 0 -45 -3 -45
-20 0 -14 7 -20 21 -20 19 0 21 -4 16 -37 -9 -51 -33 -66 -61 -37 -25 24 -23
175 2 197 24 22 39 21 52 -3 12 -23 60 -28 60 -6 0 7 -9 25 -21 40 -29 37 -99
37 -134 0z"/>
<path d="M12400 5055 l0 -155 25 0 c24 0 25 2 25 70 l0 70 40 0 40 0 0 -70 c0
-68 1 -70 25 -70 l25 0 0 155 0 155 -25 0 c-24 0 -25 -3 -25 -60 l0 -60 -40 0
-40 0 0 60 c0 57 -1 60 -25 60 l-25 0 0 -155z"/>
<path d="M12610 5185 c0 -22 4 -25 35 -25 l35 0 0 -130 0 -130 25 0 25 0 0
130 0 130 35 0 c31 0 35 3 35 25 0 25 0 25 -95 25 -95 0 -95 0 -95 -25z"/>
<path d="M9726 5149 c-15 -13 -39 -46 -54 -74 -25 -47 -30 -50 -66 -50 -45 0
-62 19 -52 58 4 17 15 29 31 33 16 4 25 13 25 25 0 25 -30 25 -64 -2 -36 -28
-38 -105 -3 -136 56 -52 122 -33 162 46 31 63 63 85 105 76 57 -13 61 -94 5
-115 -15 -6 -25 -17 -25 -30 0 -24 1 -24 44 -6 40 17 61 62 53 113 -8 50 -36
74 -89 80 -37 4 -49 1 -72 -18z"/>
<path d="M2050 5096 l-175 -41 -3 -48 c-2 -26 0 -47 4 -47 9 0 355 -79 372
-85 10 -4 12 5 10 32 -3 35 -5 38 -46 46 l-43 8 3 47 c3 46 3 47 46 55 40 8
42 10 42 43 0 26 -4 34 -17 33 -10 -1 -97 -20 -193 -43z m50 -89 l0 -33 -75
15 c-41 8 -73 17 -71 19 2 1 34 9 72 16 38 8 70 15 72 15 1 1 2 -14 2 -32z"/>
<path d="M9564 4906 c-36 -16 -44 -32 -44 -87 0 -29 7 -47 25 -64 48 -49 125
-24 164 53 28 55 54 74 92 70 26 -2 37 -10 47 -31 12 -24 11 -32 -3 -54 -9
-14 -26 -28 -36 -30 -10 -3 -19 -14 -19 -24 0 -29 37 -24 71 10 65 66 20 171
-73 171 -49 0 -77 -20 -104 -73 -24 -48 -55 -77 -80 -77 -56 0 -72 74 -21 98
16 8 27 21 27 33 0 22 -5 23 -46 5z"/>
<path d="M1100 4720 c0 -6 25 -112 56 -236 l57 -225 51 3 51 3 52 205 c29 113
55 217 58 233 6 26 5 27 -37 27 l-44 0 -39 -187 c-33 -156 -41 -181 -47 -152
-4 19 -21 103 -39 187 l-32 152 -43 0 c-24 0 -44 -5 -44 -10z"/>
<path d="M1477 4723 c-4 -3 -7 -109 -7 -235 l0 -228 45 0 45 0 0 235 0 235
-38 0 c-21 0 -42 -3 -45 -7z"/>
<path d="M1708 4714 c-16 -8 -38 -34 -50 -57 -20 -37 -23 -57 -23 -162 0 -100
3 -127 20 -160 29 -58 78 -88 137 -82 60 5 92 27 120 80 19 36 22 58 23 157 0
134 -20 197 -74 224 -38 20 -117 20 -153 0z m118 -75 c14 -16 19 -40 22 -117
6 -148 -21 -215 -79 -197 -34 11 -49 65 -49 170 0 120 16 165 58 165 17 0 37
-9 48 -21z"/>
<path d="M2010 4495 l0 -235 120 0 120 0 0 35 0 35 -80 0 -80 0 0 200 0 200
-40 0 -40 0 0 -235z"/>
<path d="M2300 4495 l0 -236 123 3 122 3 3 33 3 32 -85 0 -86 0 0 70 0 70 80
0 80 0 0 35 0 35 -80 0 -80 0 0 55 0 55 80 0 80 0 0 40 0 40 -120 0 -120 0 0
-235z"/>
<path d="M2610 4496 l0 -236 35 0 35 0 2 165 3 166 60 -163 60 -163 48 -3 47
-3 0 236 0 236 -37 -3 -38 -3 0 -158 c0 -86 -1 -154 -3 -150 -1 5 -29 76 -60
158 l-58 150 -47 3 -47 3 0 -235z"/>
<path d="M3044 4711 c-55 -34 -69 -79 -69 -226 0 -106 3 -136 18 -162 53 -97
199 -97 247 1 30 64 27 76 -19 76 -36 0 -40 -3 -51 -35 -15 -46 -52 -57 -83
-26 -20 19 -22 35 -25 135 -5 145 10 189 60 184 26 -2 36 -10 47 -35 13 -29
19 -33 53 -33 32 0 38 3 38 21 0 36 -31 89 -61 104 -40 21 -117 19 -155 -4z"/>
<path d="M3320 4495 l0 -235 119 0 c126 0 131 2 131 51 0 17 -8 19 -85 19
l-85 0 0 70 0 70 75 0 75 0 0 35 0 35 -75 0 -75 0 0 55 0 55 80 0 80 0 0 40 0
40 -120 0 -120 0 0 -235z"/>
<path d="M11943 4701 c-18 -11 -42 -40 -55 -63 -19 -37 -22 -58 -22 -158 0
-143 20 -201 80 -226 45 -19 89 -12 121 18 l23 21 0 -21 c0 -15 6 -22 20 -22
19 0 20 7 20 125 l0 125 -65 0 c-58 0 -65 -2 -65 -20 0 -17 7 -20 41 -20 l41
0 -4 -64 c-5 -81 -26 -108 -76 -104 -25 2 -41 11 -56 31 -19 26 -21 42 -21
157 0 115 2 132 21 157 29 39 94 45 118 11 9 -12 16 -30 16 -40 0 -13 8 -18
25 -18 21 0 25 5 25 30 0 18 -11 42 -28 61 -37 42 -110 51 -159 20z"/>
<path d="M10110 4518 c0 -173 2 -196 19 -224 39 -64 152 -70 207 -13 l29 30 3
200 3 199 -25 0 -25 0 -3 -189 c-3 -169 -5 -191 -22 -210 -13 -14 -31 -21 -56
-21 -25 0 -43 7 -56 21 -17 19 -19 41 -22 210 l-3 189 -25 0 -24 0 0 -192z"/>
<path d="M10460 4481 l0 -231 25 0 25 0 2 198 3 197 28 -130 c64 -289 56 -266
85 -263 28 3 33 20 97 293 l24 100 0 -197 1 -198 25 0 25 0 0 230 0 230 -39 0
-39 0 -44 -180 c-23 -99 -45 -180 -48 -180 -3 0 -14 40 -24 88 -9 49 -27 129
-40 178 l-22 89 -42 3 -42 3 0 -230z"/>
<path d="M10900 4480 l0 -230 75 0 c130 0 175 36 175 140 0 44 -4 56 -31 83
-26 26 -29 32 -17 41 37 27 49 92 26 141 -18 41 -57 55 -148 55 l-80 0 0 -230z
m169 164 c46 -59 7 -124 -74 -124 l-45 0 0 75 0 75 49 0 c42 0 53 -4 70 -26z
m-20 -175 c38 -13 51 -35 51 -87 0 -60 -25 -84 -93 -90 l-57 -4 0 96 0 96 34
0 c18 0 47 -5 65 -11z"/>
<path d="M11220 4480 l0 -230 30 0 30 0 0 105 0 105 48 0 c65 0 82 -19 82 -92
0 -90 9 -118 36 -118 23 0 24 3 24 68 0 80 -15 139 -39 153 -16 10 -15 14 11
39 23 23 28 37 28 75 0 56 -20 97 -55 113 -14 7 -64 12 -110 12 l-85 0 0 -230z
m175 165 c27 -26 32 -63 14 -98 -17 -32 -28 -37 -81 -37 l-48 0 0 80 0 80 45
0 c35 0 52 -6 70 -25z"/>
<path d="M11581 4492 c-30 -119 -56 -223 -59 -230 -3 -10 3 -13 24 -10 23 2
29 10 37 38 4 19 13 52 18 73 l10 38 61 -3 c61 -3 62 -3 71 -38 27 -110 27
-110 52 -110 14 0 25 5 25 10 0 6 -25 110 -57 230 l-56 220 -36 0 -36 0 -54
-218z m118 51 c11 -50 21 -94 21 -97 0 -3 -23 -6 -51 -6 -48 0 -51 1 -45 23 3
12 14 59 23 104 10 46 20 79 24 75 3 -4 16 -48 28 -99z"/>
<path d="M12220 4480 l0 -230 115 0 c108 0 115 1 115 20 0 17 -8 19 -87 22
l-88 3 -3 88 -3 87 81 0 c79 0 80 0 80 25 0 25 -1 25 -80 25 l-81 0 3 73 3 72
83 3 c74 3 82 5 82 22 0 19 -7 20 -110 20 l-110 0 0 -230z"/>
<path d="M9685 4636 c-159 -43 -160 -43 -160 -71 l0 -29 170 -43 c94 -23 173
-43 178 -43 4 0 7 9 7 19 0 16 -12 22 -55 32 l-56 12 3 50 c3 54 4 54 81 71
18 4 27 13 27 26 0 26 -6 26 -195 -24z m45 -75 l0 -39 -82 21 -83 21 65 17
c98 26 100 25 100 -20z"/>
<path d="M9553 4426 c-25 -21 -28 -31 -31 -100 l-4 -76 180 0 c171 0 180 1
185 20 5 19 0 20 -74 20 l-79 0 0 34 c0 18 -5 47 -11 65 -21 61 -114 82 -166
37z m115 -32 c17 -12 22 -25 22 -60 l0 -45 -67 3 -68 3 1 39 c2 65 60 96 112
60z"/>
<path d="M11310 4041 l0 -30 117 -3 117 -3 -114 -45 -115 -46 -3 -37 -3 -37
181 0 181 0 -3 28 -3 27 -122 0 c-67 0 -119 3 -115 6 4 4 52 23 106 43 137 51
138 51 134 89 l-3 32 -177 3 -178 2 0 -29z"/>
<path d="M5218 3918 l-3 -143 -110 0 -110 0 -3 128 -3 127 -54 0 -54 0 -3
-127 -3 -128 -92 -3 -93 -3 0 141 0 141 -57 -3 -58 -3 -3 -207 -2 -208 380 0
380 0 0 209 0 208 -37 7 c-77 12 -72 22 -75 -136z"/>
<path d="M771 4040 c-72 -17 -114 -72 -114 -146 0 -67 28 -103 118 -151 124
-66 153 -116 99 -170 -20 -20 -31 -24 -57 -19 -36 7 -67 38 -67 67 0 16 -8 19
-56 19 l-57 0 6 -36 c14 -82 81 -128 187 -128 101 1 168 53 177 139 11 92 -27
142 -153 201 -76 36 -99 65 -88 110 7 27 31 44 63 44 25 0 61 -37 61 -62 0
-15 9 -18 56 -18 l56 0 -7 33 c-18 89 -120 143 -224 117z"/>
<path d="M2865 4045 c-5 -2 -22 -6 -37 -9 -40 -9 -86 -53 -97 -94 -25 -89 15
-154 131 -209 104 -50 134 -108 83 -158 -41 -42 -96 -28 -121 31 -14 32 -17
34 -65 34 l-52 0 6 -37 c13 -81 81 -128 182 -127 119 1 180 56 180 160 0 84
-28 119 -141 174 -94 47 -114 71 -98 118 11 32 56 52 82 36 9 -6 24 -25 32
-42 14 -29 18 -32 68 -32 57 0 57 1 41 51 -14 41 -35 66 -69 84 -26 14 -108
27 -125 20z"/>
<path d="M5512 4028 c3 -23 4 -23 190 -23 103 0 184 -3 180 -6 -4 -3 -89 -39
-190 -79 l-183 -73 3 -31 3 -31 235 0 235 0 3 22 3 23 -198 2 -198 3 195 76
c192 75 195 77 198 108 l3 31 -241 0 -241 0 3 -22z"/>
<path d="M7412 4034 c-44 -22 -76 -66 -99 -134 -14 -44 -18 -86 -18 -215 0
-169 8 -217 48 -276 37 -56 81 -79 149 -79 95 0 150 42 185 142 15 43 18 83
18 218 0 174 -8 223 -47 280 -38 55 -71 74 -141 77 -44 3 -72 -1 -95 -13z
m149 -75 c40 -40 52 -88 57 -226 7 -201 -17 -299 -82 -330 -60 -28 -118 5
-145 84 -20 57 -26 292 -10 365 18 86 56 128 115 128 31 0 50 -6 65 -21z"/>
<path d="M7894 4036 c-76 -34 -112 -117 -92 -209 12 -58 55 -105 131 -143 110
-55 147 -99 147 -174 0 -77 -41 -120 -115 -120 -44 0 -91 40 -106 91 -11 37
-15 39 -51 39 -42 0 -41 2 -21 -75 9 -35 55 -87 89 -101 50 -21 147 -18 193 6
61 31 86 80 86 171 0 103 -26 142 -131 201 -141 79 -171 121 -144 203 22 68
116 83 161 27 11 -15 23 -39 26 -54 5 -25 10 -28 44 -28 45 0 44 -1 24 68 -22
73 -66 105 -149 109 -37 2 -73 -2 -92 -11z"/>
<path d="M0 3760 l0 -283 108 6 c150 7 190 26 235 112 16 31 22 64 25 143 5
117 -8 181 -44 230 -41 53 -76 65 -206 70 l-118 4 0 -282z m217 174 c29 -18
43 -72 43 -169 0 -141 -30 -195 -107 -195 l-43 0 0 188 c0 104 3 192 7 195 9
10 74 -3 100 -19z"/>
<path d="M460 3759 l0 -280 53 3 52 3 3 278 2 277 -55 0 -55 0 0 -281z"/>
<path d="M1090 3760 l0 -280 50 0 50 0 0 115 0 115 63 0 c120 0 187 58 187
163 0 79 -42 136 -115 156 -22 6 -84 11 -137 11 l-98 0 0 -280z m220 175 c14
-13 20 -31 20 -62 0 -60 -25 -83 -90 -83 l-50 0 0 78 c0 43 3 82 8 86 12 13
92 -1 112 -19z"/>
<path d="M1512 3763 l3 -278 148 -3 c113 -2 148 0 151 10 3 7 7 28 10 46 l6
32 -105 0 -105 0 0 235 0 235 -55 0 -55 0 2 -277z"/>
<path d="M1882 3763 l3 -278 155 0 155 0 6 43 5 42 -108 0 -108 0 0 80 0 80
95 0 95 0 0 45 0 45 -95 0 -95 0 0 65 0 65 100 0 100 0 0 45 0 45 -155 0 -155
0 2 -277z"/>
<path d="M2381 4008 c-11 -34 -131 -513 -131 -523 0 -3 23 -5 50 -5 57 0 62 7
75 93 l7 47 73 0 72 0 15 -67 14 -68 43 -3 c24 -2 49 -1 56 2 10 4 -3 69 -56
278 -38 150 -69 274 -69 275 0 2 -31 3 -69 3 l-69 0 -11 -32z m102 -186 l24
-112 -48 0 c-27 0 -49 3 -49 8 0 13 44 221 47 219 1 -2 13 -53 26 -115z"/>
<path d="M3152 3806 c3 -220 4 -236 24 -263 35 -47 78 -66 152 -66 77 -1 134
22 166 66 20 26 21 44 24 263 l3 235 -53 -3 -53 -3 -5 -223 c-5 -207 -6 -225
-24 -238 -29 -21 -82 -18 -106 6 -19 19 -20 33 -20 240 l0 220 -56 0 -55 0 3
-234z"/>
<path d="M3620 3761 l0 -282 53 3 52 3 3 118 3 117 40 0 c29 0 47 -7 64 -25
22 -21 25 -33 25 -97 0 -112 3 -118 61 -118 l49 0 0 83 c0 95 -11 141 -41 173
l-22 24 26 24 c48 45 56 144 14 197 -34 44 -67 53 -199 57 l-128 4 0 -281z
m232 169 c10 -12 18 -35 18 -50 0 -46 -29 -72 -88 -78 l-52 -5 0 83 0 83 52
-5 c38 -4 57 -12 70 -28z"/>
<path d="M4060 3760 l0 -280 154 0 154 0 6 31 c12 61 15 59 -99 59 l-105 0 0
80 0 80 95 0 95 0 0 45 0 45 -95 0 -95 0 0 65 0 65 100 0 100 0 0 45 0 45
-155 0 -155 0 0 -280z"/>
<path d="M6170 3985 c0 -30 1 -55 3 -55 10 0 261 -51 263 -53 2 -2 -36 -9 -84
-16 -48 -7 -108 -17 -134 -22 l-48 -11 0 -54 0 -54 200 0 200 0 0 36 0 36
-154 -3 c-85 -2 -153 -2 -151 0 4 3 279 50 298 51 4 0 7 15 7 34 l0 34 -122
22 c-204 37 -205 38 -35 39 l157 1 0 35 0 35 -200 0 -200 0 0 -55z"/>
<path d="M6792 3688 l3 -353 35 0 35 0 3 168 2 167 115 0 115 0 0 -170 0 -170
35 0 35 0 0 355 0 355 -35 0 -34 0 -3 -147 -3 -148 -112 -3 -113 -3 0 151 0
150 -40 0 -40 0 2 -352z"/>
<path d="M8200 4005 l0 -35 80 0 80 0 0 -320 0 -320 35 0 35 0 0 320 0 320 80
0 80 0 0 35 0 35 -195 0 -195 0 0 -35z"/>
<path d="M8670 3684 l0 -355 38 3 37 3 3 353 2 352 -40 0 -40 0 0 -356z"/>
<path d="M8890 3685 l0 -354 157 2 157 2 7 32 6 32 -126 3 -126 3 -3 318 -2
317 -35 0 -35 0 0 -355z"/>
<path d="M9292 3688 l3 -353 35 0 35 0 3 353 2 352 -40 0 -40 0 2 -352z"/>
<path d="M9440 4005 l0 -35 75 0 75 0 2 -317 3 -318 38 -3 37 -3 0 320 0 321
80 0 80 0 0 35 0 35 -195 0 -195 0 0 -35z"/>
<path d="M9880 4033 c0 -4 40 -103 90 -218 l90 -210 0 -138 0 -138 35 3 35 2
0 136 0 135 94 218 94 217 -41 0 -42 0 -54 -138 c-30 -75 -61 -153 -69 -172
l-14 -34 -68 169 -67 170 -42 3 c-22 2 -41 0 -41 -5z"/>
<path d="M10542 3988 l3 -43 188 1 c103 1 187 0 187 -1 0 -1 -85 -33 -190 -71
l-190 -68 0 -58 0 -58 283 2 282 3 3 42 3 43 -200 2 -200 3 197 70 197 70 3
53 3 52 -286 0 -286 0 3 -42z"/>
<path d="M11375 3766 c-59 -26 -82 -75 -64 -140 18 -66 109 -97 236 -81 46 6
63 13 90 40 58 58 41 150 -33 181 -43 18 -189 18 -229 0z m225 -74 c30 -24 20
-57 -22 -71 -42 -15 -157 -14 -188 2 -31 16 -39 56 -14 74 12 8 50 13 110 13
74 0 96 -4 114 -18z"/>
<path d="M5643 3700 c-96 -20 -133 -58 -133 -133 0 -42 5 -54 33 -82 42 -42
90 -55 208 -55 114 0 189 19 218 56 52 67 30 152 -51 192 -53 27 -200 38 -275
22z m274 -76 c37 -28 43 -74 12 -103 -31 -28 -119 -44 -215 -38 -93 5 -132 20
-154 60 -13 24 -13 30 0 55 24 41 69 52 207 49 106 -2 125 -5 150 -23z"/>
<path d="M6400 3657 c-23 -11 -33 -25 -85 -109 -17 -27 -27 -33 -55 -33 -32 0
-35 2 -35 30 0 22 6 33 23 40 16 7 22 18 22 42 0 36 -12 41 -55 21 -84 -38
-67 -181 24 -209 58 -17 107 9 144 79 33 61 66 87 101 78 46 -11 46 -81 0 -92
-20 -5 -24 -12 -24 -44 0 -39 0 -39 32 -30 47 14 76 47 84 96 7 52 -18 112
-56 131 -32 16 -88 16 -120 0z"/>
<path d="M10540 3545 l0 -45 285 0 285 0 0 45 0 45 -285 0 -285 0 0 -45z"/>
<path d="M4572 3428 l3 -73 303 -5 304 -5 24 -28 c52 -60 20 -149 -61 -167
-22 -5 -160 -10 -307 -10 l-268 0 0 -70 0 -70 299 0 c196 0 310 4 332 11 98
33 142 106 142 234 0 92 -22 154 -69 199 -54 50 -100 56 -416 56 l-289 0 3
-72z"/>
<path d="M11310 3455 l0 -35 181 0 180 0 -3 33 -3 32 -177 3 -178 2 0 -35z"/>
<path d="M10621 3402 c-65 -32 -76 -59 -80 -193 l-3 -119 283 2 284 3 3 48 3
47 -120 0 c-66 0 -122 4 -126 9 -8 15 12 93 27 102 7 5 45 9 83 10 39 1 84 4
100 8 28 6 30 9 30 51 l0 45 -95 -3 c-109 -4 -154 -15 -174 -44 -14 -20 -14
-20 -26 2 -25 47 -126 65 -189 32z m139 -102 c14 -14 20 -33 20 -65 l0 -45
-80 0 -80 0 0 39 c0 56 31 91 81 91 26 0 46 -7 59 -20z"/>
<path d="M6170 3340 l0 -40 201 0 200 0 -3 38 -3 37 -197 3 -198 2 0 -40z"/>
<path d="M11310 3270 l0 -110 30 0 c28 0 30 2 30 40 l0 40 150 0 150 0 0 30 0
30 -150 0 -150 0 0 40 c0 38 -2 40 -30 40 l-30 0 0 -110z"/>
<path d="M5510 3325 l0 -25 240 0 240 0 0 25 0 25 -240 0 -240 0 0 -25z"/>
<path d="M1670 3145 l0 -185 85 0 c69 0 85 3 85 15 0 12 -14 15 -65 15 l-65 0
0 75 0 75 60 0 c47 0 60 3 60 15 0 12 -13 15 -60 15 l-60 0 0 60 0 59 63 3
c47 2 62 7 62 18 0 12 -17 16 -82 18 l-83 3 0 -186z"/>
<path d="M1880 3326 c0 -2 19 -43 42 -91 l41 -87 -41 -84 c-47 -95 -49 -104
-24 -104 14 0 28 21 53 77 l35 77 34 -77 c28 -64 38 -77 57 -77 24 0 22 6 -58
175 -8 16 -1 39 31 103 22 45 40 85 40 87 0 3 -8 5 -19 5 -13 0 -27 -20 -51
-72 l-32 -72 -33 72 c-26 55 -39 72 -54 72 -12 0 -21 -2 -21 -4z"/>
<path d="M2196 3322 c-5 -8 -86 -340 -86 -353 0 -5 8 -9 18 -9 13 0 22 14 32
57 l15 58 45 -4 c51 -3 57 -9 66 -68 5 -37 10 -43 31 -43 19 0 23 4 19 18 -3
9 -24 92 -47 185 -39 156 -43 167 -65 167 -12 0 -25 -3 -28 -8z m42 -109 c7
-32 15 -68 18 -80 6 -21 3 -23 -36 -23 -29 0 -41 4 -38 13 3 6 11 42 18 80 8
37 16 67 20 67 3 0 11 -26 18 -57z"/>
<path d="M2419 3317 c-23 -17 -39 -52 -39 -83 0 -29 51 -84 111 -119 26 -15
35 -28 37 -52 5 -49 -13 -73 -54 -73 -28 0 -38 6 -52 30 -9 16 -25 30 -34 30
-41 0 -2 -74 47 -90 75 -25 135 17 135 94 0 53 -19 80 -85 117 -60 34 -76 66
-50 105 23 36 70 30 86 -12 5 -15 17 -24 29 -24 17 0 20 4 15 23 -14 43 -46
67 -89 67 -23 0 -48 -6 -57 -13z"/>
<path d="M2630 3146 c0 -179 1 -186 20 -186 18 0 20 7 20 80 l0 80 44 0 c33 0
52 6 73 24 24 21 28 31 28 80 0 79 -22 99 -115 104 l-70 4 0 -186z m139 113
c14 -25 11 -59 -7 -87 -5 -8 -28 -16 -51 -19 l-41 -6 0 72 0 72 42 -3 c33 -2
45 -8 57 -29z"/>
<path d="M2870 3145 l0 -185 84 0 c65 0 85 3 90 15 4 12 -7 15 -65 15 l-70 0
3 73 3 72 58 3 c42 2 57 7 57 17 0 12 -14 15 -60 15 l-60 0 0 60 0 60 65 0
c58 0 65 2 65 20 0 18 -7 20 -85 20 l-85 0 0 -185z"/>
<path d="M3090 3145 c0 -178 1 -185 20 -185 18 0 20 7 20 85 l0 85 35 0 c56 0
75 -27 75 -105 0 -58 2 -65 20 -65 18 0 20 7 20 69 0 53 -4 74 -19 92 -19 23
-19 24 0 48 19 23 25 83 13 116 -11 27 -60 45 -124 45 l-60 0 0 -185z m138
133 c7 -7 12 -29 12 -50 0 -44 -31 -71 -77 -66 -27 3 -28 5 -31 66 l-3 62 44
0 c23 0 48 -5 55 -12z"/>
<path d="M3370 3158 c-23 -95 -44 -179 -46 -186 -3 -9 4 -12 18 -10 18 2 24
13 33 53 l10 50 48 6 c27 3 50 3 51 0 2 -4 9 -30 16 -58 9 -41 16 -53 31 -53
10 0 19 6 19 13 0 6 -20 89 -43 182 -41 162 -44 170 -69 173 -25 3 -26 1 -68
-170z m84 49 c22 -95 22 -97 -19 -97 -19 0 -35 3 -35 7 0 14 33 163 36 160 1
-1 10 -33 18 -70z"/>
<path d="M3530 3310 c0 -17 7 -20 40 -20 l40 0 0 -165 c0 -158 1 -165 20 -165
19 0 20 7 20 165 l0 165 45 0 c38 0 45 3 45 20 0 19 -7 20 -105 20 -98 0 -105
-1 -105 -20z"/>
<path d="M3780 3145 c0 -178 1 -185 20 -185 19 0 20 7 20 185 0 178 -1 185
-20 185 -19 0 -20 -7 -20 -185z"/>
<path d="M3920 3302 c-19 -20 -31 -44 -35 -76 -11 -68 -1 -186 18 -222 32 -61
118 -69 159 -13 37 50 43 234 9 298 -27 50 -107 57 -151 13z m101 -21 c22 -17
24 -29 28 -112 4 -115 -9 -166 -46 -175 -54 -14 -82 36 -82 146 -1 134 39 191
100 141z"/>
<path d="M4160 3145 c0 -156 2 -185 15 -185 12 0 15 26 17 153 l3 152 59 -152
c53 -137 61 -153 82 -153 l24 0 0 186 c0 171 -1 185 -17 182 -16 -3 -18 -17
-15 -148 1 -83 -1 -140 -6 -135 -5 6 -33 72 -63 147 -47 120 -57 138 -76 138
l-23 0 0 -185z"/>
<path d="M5517 3244 c-4 -4 -7 -65 -7 -136 l0 -128 25 0 c24 0 25 3 25 55 l0
55 215 0 215 0 0 25 0 25 -214 0 -215 0 -3 52 c-2 38 -7 54 -18 56 -9 1 -19 0
-23 -4z"/>
<path d="M6170 3200 l0 -30 133 -1 c85 0 125 -3 112 -9 -11 -5 -63 -25 -115
-44 -52 -19 -103 -38 -112 -41 -13 -5 -18 -18 -18 -49 l0 -41 200 3 200 3 0
29 0 30 -142 0 -143 1 143 51 142 52 0 38 0 38 -200 0 -200 0 0 -30z"/>
<path d="M11480 3136 l-165 -41 0 -44 0 -45 146 -36 c226 -57 211 -56 207 -17
-3 29 -7 33 -46 42 l-43 9 3 45 c3 45 4 46 46 54 40 8 42 10 42 43 0 21 -5 34
-12 33 -7 -1 -87 -20 -178 -43z m40 -87 c0 -28 -2 -31 -25 -25 -14 4 -45 9
-70 13 -25 3 -43 8 -41 11 4 4 100 27 129 31 4 1 7 -13 7 -30z"/>
<path d="M10250 3060 l0 -90 -70 0 -70 0 0 80 0 80 -35 0 -35 0 0 -80 0 -80
-60 0 -60 0 0 79 0 79 -35 4 c-20 2 -38 2 -40 -1 -3 -2 -5 -60 -5 -128 l0
-123 245 0 245 0 0 125 c0 92 -3 127 -12 129 -7 3 -25 7 -40 10 l-28 6 0 -90z"/>
<path d="M6820 3126 c0 -2 -22 -90 -49 -195 l-49 -191 38 0 c35 0 39 3 45 33
14 68 13 67 66 67 32 0 49 -4 49 -12 0 -7 5 -30 11 -50 9 -36 12 -38 49 -38
l38 0 -49 191 c-27 105 -49 193 -49 195 0 2 -22 4 -50 4 -27 0 -50 -2 -50 -4z
m59 -113 c5 -21 13 -55 17 -75 6 -38 6 -38 -28 -38 l-34 0 15 75 c9 41 16 75
18 75 1 0 7 -17 12 -37z"/>
<path d="M7119 3113 c-15 -9 -35 -30 -44 -46 -21 -35 -31 -150 -21 -221 14
-90 89 -137 162 -103 20 10 36 12 39 7 3 -6 17 -10 31 -10 24 0 24 0 24 110
l0 110 -65 0 -65 0 0 -30 c0 -27 3 -30 31 -30 31 0 32 -1 26 -40 -6 -50 -22
-70 -53 -70 -40 0 -54 35 -54 135 0 109 12 139 58 143 26 3 34 -1 44 -22 9
-20 18 -26 45 -26 22 0 33 5 33 15 0 28 -24 67 -51 81 -37 19 -108 17 -140 -3z"/>
<path d="M7444 3111 c-45 -27 -64 -84 -64 -187 0 -90 13 -137 47 -167 30 -26
84 -32 121 -13 18 9 32 12 32 6 0 -5 14 -10 30 -10 l30 0 0 110 0 110 -65 0
-65 0 0 -29 c0 -25 4 -30 28 -33 25 -3 27 -6 25 -42 -3 -47 -17 -66 -49 -66
-41 0 -58 41 -58 140 0 104 16 140 64 140 23 0 33 -6 40 -25 8 -20 16 -25 46
-25 34 0 36 1 30 28 -4 15 -20 39 -37 55 -36 34 -107 37 -155 8z"/>
<path d="M7718 3124 c-5 -4 -8 -92 -8 -196 l0 -188 40 0 40 0 0 80 0 80 33 0
c44 0 57 -15 57 -70 0 -76 8 -90 47 -90 l35 0 -4 74 c-2 54 -8 80 -22 95 -18
19 -18 21 3 47 21 26 28 84 15 119 -11 28 -65 47 -148 52 -45 3 -84 2 -88 -3z
m156 -70 c37 -36 6 -94 -51 -94 l-33 0 0 55 0 55 34 0 c19 0 42 -7 50 -16z"/>
<path d="M8030 2935 l0 -195 110 0 110 0 0 30 0 30 -75 0 -75 0 0 55 0 55 70
0 70 0 0 30 0 30 -71 0 -70 0 3 48 3 47 73 3 c73 3 73 3 70 30 l-3 27 -107 3
-108 3 0 -196z"/>
<path d="M8365 3121 c-51 -22 -73 -82 -51 -135 11 -26 30 -42 77 -67 68 -36
92 -68 80 -103 -15 -39 -86 -33 -97 9 -5 21 -12 25 -45 25 -43 0 -46 -7 -23
-55 33 -70 156 -84 216 -25 22 23 28 37 28 73 0 55 -24 88 -88 118 -63 29 -82
47 -82 76 0 35 43 52 70 28 11 -10 20 -24 20 -32 0 -8 12 -13 35 -13 30 0 35
3 35 24 0 14 -10 37 -23 52 -19 22 -34 28 -78 30 -30 2 -63 0 -74 -5z"/>
<path d="M8658 3114 c-35 -19 -48 -43 -48 -91 0 -46 26 -75 108 -118 33 -18
55 -37 58 -51 16 -63 -62 -91 -94 -34 -13 24 -24 30 -49 30 -29 0 -33 -3 -33
-26 0 -61 94 -108 169 -85 56 16 84 52 84 106 0 56 -24 85 -104 126 -58 29
-74 49 -64 80 13 39 71 34 81 -7 5 -20 12 -24 46 -24 39 0 40 1 34 28 -4 15
-20 39 -37 55 -23 22 -39 27 -77 27 -26 -1 -59 -7 -74 -16z"/>
<path d="M8917 3123 c-4 -3 -7 -91 -7 -195 l0 -188 40 0 40 0 0 195 0 195 -33
0 c-19 0 -37 -3 -40 -7z"/>
<path d="M9124 3111 c-48 -29 -67 -90 -62 -198 6 -133 42 -179 137 -177 93 1
131 58 131 197 -1 135 -43 197 -137 197 -21 0 -52 -9 -69 -19z m110 -63 c27
-43 25 -204 -2 -238 -24 -30 -64 -21 -81 16 -18 40 -16 190 4 220 20 31 60 32
79 2z"/>
<path d="M9400 2936 l0 -196 36 0 36 0 -4 135 c-2 74 0 131 3 127 3 -4 28 -64
55 -134 l49 -128 43 0 42 0 0 196 0 195 -32 -3 -33 -3 -5 -124 -5 -124 -50
124 -50 124 -42 3 -43 3 0 -195z"/>
<path d="M5780 2959 c-292 -73 -270 -64 -270 -102 l0 -33 223 -54 c122 -29
230 -55 240 -58 13 -3 17 2 17 21 0 27 -17 35 -112 53 l-38 6 0 63 c0 71 -7
65 93 86 53 11 57 14 57 41 0 15 -3 28 -7 27 -5 -1 -96 -23 -203 -50z m6 -146
c-3 -3 -52 5 -111 18 -58 13 -100 26 -94 28 7 2 56 14 108 26 l96 22 3 -45 c2
-24 1 -46 -2 -49z"/>
<path d="M10653 3000 c-78 -17 -118 -68 -118 -149 0 -80 25 -119 100 -156 58
-29 65 -30 195 -30 148 0 207 14 249 59 42 45 47 135 10 175 -24 25 -24 27 2
34 16 4 20 12 17 39 l-3 33 -157 3 -158 3 0 -91 0 -90 39 0 c39 0 40 1 43 38
l3 37 58 -1 c66 -2 97 -22 97 -64 0 -38 -27 -58 -96 -71 -73 -14 -218 -6 -267
15 -62 25 -63 95 -1 118 31 11 34 15 34 54 0 50 -4 53 -47 44z"/>
<path d="M5298 2891 c-30 -42 -48 -59 -58 -55 -99 40 -133 47 -241 52 -192 8
-319 -25 -383 -100 -78 -91 -72 -250 11 -330 74 -70 154 -92 333 -92 188 1
287 36 350 125 27 37 42 127 30 187 -8 45 -7 49 36 109 24 34 46 68 49 75 3 8
-14 30 -40 51 l-45 38 -42 -60z m-137 -173 c74 -32 93 -106 39 -152 -47 -39
-101 -50 -250 -50 -201 0 -270 28 -270 112 0 49 31 80 97 98 68 19 334 13 384
-8z"/>
<path d="M6275 2921 c-68 -17 -104 -52 -112 -109 -7 -55 18 -99 70 -123 60
-27 215 -26 275 1 77 35 95 141 31 194 -46 39 -178 58 -264 37z m209 -82 c53
-25 39 -72 -27 -90 -23 -6 -77 -9 -120 -7 -62 4 -83 9 -99 25 -24 25 -17 60
15 73 32 13 202 12 231 -1z"/>
<path d="M11535 2893 c-11 -3 -29 -13 -40 -23 -18 -16 -22 -17 -39 -4 -32 23
-93 18 -121 -11 -22 -22 -25 -32 -25 -105 l0 -80 180 0 180 0 0 58 c0 107 -24
152 -90 164 -14 3 -34 3 -45 1z m65 -83 c11 -11 20 -31 20 -45 0 -24 -3 -25
-60 -25 -56 0 -60 2 -60 23 0 59 60 87 100 47z m-162 -2 c7 -7 12 -25 12 -40
0 -27 -2 -28 -45 -28 -43 0 -45 1 -45 28 0 33 16 52 45 52 12 0 26 -5 33 -12z"/>
<path d="M9920 2807 c-49 -17 -80 -67 -80 -131 0 -68 27 -111 88 -139 66 -31
266 -32 326 -3 52 26 76 68 76 134 0 70 -21 109 -73 133 -61 27 -67 25 -67
-24 0 -38 3 -44 30 -54 34 -13 45 -33 36 -67 -9 -38 -57 -51 -178 -50 -93 0
-112 3 -135 21 -43 31 -39 73 10 96 33 17 37 22 37 58 0 44 -9 47 -70 26z"/>
<path d="M2187 2780 c-32 -25 -47 -75 -47 -157 l0 -63 235 0 235 0 0 25 0 25
-111 0 -112 0 5 51 c7 72 20 80 127 87 88 5 91 6 91 28 0 23 -3 24 -79 24 -84
0 -127 -11 -146 -37 -10 -14 -15 -13 -38 11 -22 22 -35 26 -80 26 -40 0 -61
-6 -80 -20z m137 -51 c22 -17 26 -28 26 -70 l0 -49 -80 0 -80 0 0 50 c0 37 5
55 20 70 26 26 80 26 114 -1z"/>
<path d="M2800 2765 l0 -34 132 -3 133 -3 -133 -48 -132 -49 0 -39 0 -38 205
-3 205 -3 0 33 0 32 -142 1 c-93 0 -136 4 -123 9 11 5 75 28 142 52 l123 43 0
43 0 42 -205 0 -205 0 0 -35z"/>
<path d="M3400 2564 l0 -225 23 3 c22 3 22 3 22 195 0 105 1 191 2 189 1 -1
20 -84 42 -184 22 -100 43 -187 46 -192 3 -6 15 -10 25 -10 22 0 24 7 75 227
18 79 34 146 36 148 2 2 4 -81 4 -183 0 -186 0 -187 23 -190 l22 -3 0 226 0
226 -37 -3 -37 -3 -41 -167 c-23 -92 -44 -170 -47 -173 -3 -3 -8 11 -11 32 -4
21 -21 100 -38 176 l-32 137 -39 0 -38 0 0 -226z"/>
<path d="M3832 2573 c-29 -120 -52 -222 -52 -226 0 -5 10 -7 22 -5 15 2 25 13
30 33 4 17 12 49 18 73 l11 42 59 0 59 0 11 -57 c15 -74 26 -93 50 -93 12 0
20 7 20 18 0 9 -24 109 -54 222 l-53 205 -34 3 -35 3 -52 -218z m107 80 c10
-43 21 -88 25 -100 7 -22 5 -23 -44 -23 -49 0 -52 1 -46 23 3 12 13 59 23 104
9 45 19 81 21 78 2 -2 12 -39 21 -82z"/>
<path d="M4118 2565 l3 -228 73 5 c125 8 166 58 174 208 5 101 -9 159 -48 203
-27 31 -32 32 -117 35 l-88 4 3 -227z m157 163 c42 -37 57 -142 34 -247 -13
-62 -45 -91 -100 -91 l-39 0 0 180 0 180 39 0 c27 0 48 -7 66 -22z"/>
<path d="M5800 2663 c-8 -3 -27 -17 -42 -30 l-27 -25 -27 21 c-18 14 -41 21
-70 21 -94 0 -127 -44 -122 -162 l3 -73 235 0 235 0 3 77 c3 90 -11 128 -61
158 -31 19 -93 25 -127 13z m127 -78 c17 -19 23 -39 23 -71 l0 -44 -101 0
-101 0 7 48 c4 26 11 55 17 65 24 45 118 46 155 2z m-233 -7 c9 -12 16 -42 16
-65 l0 -43 -75 0 -75 0 0 47 c0 61 20 83 76 83 33 0 46 -5 58 -22z"/>
<path d="M10820 2564 c-146 -34 -268 -63 -272 -63 -5 -1 -8 -30 -8 -65 l0 -64
98 -22 c53 -12 173 -40 266 -61 93 -21 177 -39 187 -39 16 0 19 8 19 44 0 49
3 47 -92 66 l-58 11 0 63 0 64 73 14 72 13 0 49 c0 27 -4 50 -10 51 -5 1 -129
-26 -275 -61z m60 -129 c0 -25 -3 -45 -8 -45 -15 0 -215 40 -219 44 -4 3 183
43 215 45 8 1 12 -14 12 -44z"/>
<path d="M11403 2610 c-51 -12 -81 -37 -92 -77 -28 -99 40 -158 181 -156 125
2 178 37 178 119 0 60 -35 99 -101 113 -56 12 -118 13 -166 1z m175 -71 c37
-13 51 -45 29 -66 -32 -32 -177 -39 -229 -11 -21 10 -24 51 -5 66 27 22 153
29 205 11z"/>
<path d="M6225 2601 c-42 -18 -60 -50 -60 -108 0 -49 3 -58 32 -83 41 -37 90
-50 183 -50 79 1 139 17 170 45 29 26 35 77 16 117 -11 20 -13 34 -6 36 5 2
10 15 10 28 0 24 0 24 -115 24 l-115 0 0 -60 0 -60 35 0 c31 0 35 3 35 25 0
22 4 25 35 25 33 0 75 -27 75 -48 0 -21 -29 -44 -65 -52 -85 -20 -207 -3 -226
31 -14 28 -2 58 27 65 19 5 24 12 24 40 0 36 -13 42 -55 25z"/>
<path d="M6720 2340 c0 -183 1 -190 20 -190 19 0 20 7 21 153 l1 152 15 -65
c52 -228 57 -245 78 -245 17 0 24 17 52 135 52 213 51 212 52 33 1 -156 2
-163 21 -163 19 0 20 7 20 190 l0 190 -34 0 -33 0 -39 -155 -38 -155 -33 142
c-18 79 -35 149 -38 156 -2 6 -18 12 -35 12 l-30 0 0 -190z"/>
<path d="M7134 2503 c-4 -16 -24 -96 -45 -180 -44 -169 -45 -182 -24 -179 22
3 27 11 40 68 l11 53 52 3 51 3 11 -43 c6 -24 13 -50 16 -59 4 -16 38 -32 47
-23 2 3 -4 35 -14 72 -10 37 -32 122 -50 190 -31 120 -32 122 -60 122 -23 0
-30 -5 -35 -27z m57 -108 c10 -43 19 -81 19 -86 0 -5 -19 -9 -41 -9 -40 0 -41
1 -36 28 4 15 12 55 18 89 7 35 14 61 16 59 3 -2 13 -39 24 -81z"/>
<path d="M7340 2340 c0 -183 1 -190 20 -190 19 0 20 7 20 158 l1 157 62 -150
c74 -178 72 -175 97 -168 19 5 20 14 20 194 0 186 0 189 -21 189 -21 0 -21 -3
-18 -155 2 -85 3 -155 3 -155 -1 0 -30 70 -65 155 -60 148 -64 155 -91 155
l-28 0 0 -190z"/>
<path d="M7642 2338 c3 -185 4 -193 23 -193 19 0 20 8 23 193 l2 192 -25 0
-25 0 2 -192z"/>
<path d="M7770 2337 c0 -190 1 -195 20 -190 18 5 20 14 20 84 l0 79 43 0 c56
0 88 18 110 60 22 44 15 96 -19 130 -20 21 -35 25 -99 28 l-75 4 0 -195z m142
136 c23 -20 24 -80 1 -105 -11 -12 -30 -18 -60 -18 l-43 0 0 70 0 70 42 0 c24
0 49 -7 60 -17z"/>
<path d="M8032 2359 l3 -171 28 -24 c30 -26 85 -32 132 -14 44 17 55 62 55
230 0 141 -1 150 -19 150 -18 0 -19 -10 -23 -158 -3 -181 -8 -192 -70 -192
-58 0 -68 32 -68 210 0 135 -1 140 -21 140 -20 0 -20 -4 -17 -171z"/>
<path d="M8330 2345 c0 -102 0 -188 0 -191 0 -3 39 -6 88 -6 72 0 88 3 90 16
3 13 -8 16 -67 16 l-71 0 0 175 c0 168 -1 175 -20 175 -19 0 -20 -7 -20 -185z"/>
<path d="M8587 2346 c-26 -101 -47 -187 -47 -191 0 -17 45 2 48 20 2 11 8 37
13 58 l10 38 51 -3 51 -3 16 -60 c9 -33 19 -59 24 -57 4 1 13 2 21 2 11 0 5
38 -30 173 -25 94 -47 180 -50 190 -3 11 -15 17 -33 17 -27 0 -27 -2 -74 -184z
m96 49 c10 -42 17 -80 17 -85 0 -6 -18 -10 -41 -10 -38 0 -41 2 -36 23 3 12
11 50 18 85 7 34 16 62 19 62 4 0 14 -34 23 -75z"/>
<path d="M8765 2520 c-11 -19 6 -30 45 -30 l40 0 2 -172 c3 -165 4 -173 23
-173 19 0 20 8 23 172 l2 172 43 3 c30 2 43 8 45 21 3 15 -7 17 -107 17 -62 0
-112 -4 -116 -10z"/>
<path d="M9032 2338 c3 -174 5 -193 21 -196 16 -3 17 11 17 192 0 190 -1 196
-20 196 -20 0 -20 -5 -18 -192z"/>
<path d="M9185 2506 c-13 -13 -29 -43 -35 -67 -15 -54 -8 -203 10 -242 36 -74
155 -74 189 0 17 35 26 165 16 229 -10 68 -48 104 -110 104 -35 0 -52 -6 -70
-24z m110 -30 c41 -41 46 -196 9 -268 -15 -28 -53 -38 -80 -20 -54 36 -55 259
-1 297 30 21 44 19 72 -9z"/>
<path d="M9440 2341 c0 -184 1 -191 20 -191 19 0 20 7 20 153 l1 152 62 -150
c57 -138 65 -150 90 -153 l27 -3 0 190 c0 183 -1 191 -20 191 -18 0 -20 -8
-22 -151 l-3 -151 -61 148 c-55 136 -62 149 -87 152 l-27 3 0 -190z"/>
<path d="M2147 2483 c-4 -3 -7 -53 -7 -110 l0 -103 235 0 235 0 0 110 0 110
-25 0 c-25 0 -25 -1 -25 -85 l0 -85 -90 0 -90 0 0 80 c0 73 -2 80 -20 80 -18
0 -20 -7 -20 -80 l0 -80 -75 0 -75 0 0 85 c0 76 -2 85 -18 85 -10 0 -22 -3
-25 -7z"/>
<path d="M2940 2484 c-103 -19 -140 -56 -140 -139 0 -85 66 -125 206 -125 82
0 163 21 189 50 11 12 20 41 23 73 7 91 -47 134 -180 141 -40 3 -84 2 -98 0z
m179 -85 c36 -13 52 -52 29 -75 -34 -34 -215 -40 -265 -8 -35 22 -30 62 10 79
39 17 181 20 226 4z"/>
<path d="M9847 2433 c-4 -3 -7 -21 -7 -39 l0 -34 162 -2 161 -3 -159 -61 -159
-61 0 -49 0 -49 243 -3 242 -2 0 40 0 40 -172 1 -173 0 173 66 172 66 0 48 0
49 -238 0 c-131 0 -242 -3 -245 -7z"/>
<path d="M5643 2330 c-96 -20 -133 -58 -133 -133 0 -42 5 -54 33 -82 45 -45
99 -58 232 -53 129 4 179 23 208 79 21 40 16 102 -11 133 -45 51 -217 80 -329
56z m274 -76 c37 -28 43 -74 12 -103 -31 -28 -119 -44 -215 -38 -93 5 -132 20
-154 60 -13 24 -13 30 0 55 24 41 69 52 207 49 106 -2 125 -5 150 -23z"/>
<path d="M6350 2286 l-175 -42 0 -49 0 -49 185 -43 c102 -23 191 -43 198 -43
7 0 12 13 12 34 0 33 -2 34 -47 42 l-48 9 -3 47 c-3 50 -4 49 66 63 29 6 32
10 32 41 0 43 2 43 -220 -10z m60 -98 c0 -26 -3 -29 -22 -25 -13 3 -50 11 -83
18 -33 6 -55 13 -50 15 28 10 141 30 148 27 4 -2 7 -18 7 -35z"/>
<path d="M11352 2323 c-26 -10 -42 -62 -42 -138 l0 -75 178 2 177 3 3 33 3 32
-80 0 c-75 0 -81 1 -81 21 0 45 17 59 75 59 72 0 85 6 85 42 l0 30 -75 -4
c-52 -2 -80 -8 -91 -20 -15 -15 -18 -14 -35 3 -18 18 -84 25 -117 12z m89 -63
c13 -8 19 -21 19 -45 l0 -35 -50 0 c-49 0 -50 1 -50 29 0 50 38 74 81 51z"/>
<path d="M4577 2243 c-4 -3 -7 -37 -7 -75 l0 -68 380 0 380 0 0 75 0 75 -373
0 c-206 0 -377 -3 -380 -7z"/>
<path d="M2275 2181 c-94 -23 -126 -67 -133 -183 l-5 -78 237 0 236 0 0 58 c0
121 -37 175 -137 198 -62 15 -149 17 -198 5z m219 -65 c45 -19 66 -52 66 -103
l0 -43 -185 0 -185 0 0 41 c0 89 45 119 178 119 57 0 106 -5 126 -14z"/>
<path d="M10540 2140 l0 -50 110 0 110 0 0 -65 0 -65 -110 0 -110 0 0 -50 0
-50 286 0 285 0 -3 48 -3 47 -127 3 -128 3 0 64 0 64 128 3 127 3 3 48 3 47
-285 0 -286 0 0 -50z"/>
<path d="M2800 2125 l0 -35 205 0 205 0 0 35 0 35 -205 0 -205 0 0 -35z"/>
<path d="M6170 1954 l0 -125 28 3 c24 3 27 7 30 46 l3 42 170 0 169 0 0 35 0
35 -170 0 -170 0 0 45 c0 43 -1 45 -30 45 l-30 0 0 -126z"/>
<path d="M10075 2026 c-116 -29 -216 -56 -223 -60 -7 -4 -12 -29 -12 -57 0
-42 3 -51 23 -58 29 -11 438 -111 455 -111 9 0 12 13 10 42 l-3 43 -53 11
c-30 7 -55 14 -57 16 -2 1 -5 28 -6 58 l-3 55 62 14 62 14 0 44 c0 38 -2 43
-22 42 -13 -1 -118 -25 -233 -53z m55 -116 c0 -46 5 -45 -110 -21 -92 20 -91
23 15 44 99 21 95 22 95 -23z"/>
<path d="M11361 2056 c-37 -21 -50 -55 -51 -133 l0 -73 181 0 180 0 -3 33 -3
32 -72 3 -73 3 0 35 c0 91 -82 142 -159 100z m97 -68 c7 -7 12 -25 12 -40 0
-27 -1 -28 -55 -28 -49 0 -55 2 -55 21 0 38 19 59 53 59 18 0 38 -5 45 -12z"/>
<path d="M2804 2035 c-3 -6 -3 -63 -2 -126 l3 -114 30 0 c28 0 30 3 33 43 l3
42 170 0 169 0 0 40 0 40 -169 0 -170 0 -3 42 c-3 38 -5 41 -32 43 -15 0 -30
-4 -32 -10z"/>
<path d="M4723 1996 c-61 -20 -98 -50 -125 -104 -20 -42 -23 -64 -26 -204 l-4
-158 381 0 381 0 0 70 0 69 -152 3 -153 3 -6 95 c-3 52 -11 106 -18 120 -51
97 -165 141 -278 106z m158 -165 c26 -27 29 -36 29 -96 l0 -66 -112 3 -113 3
-3 47 c-4 56 19 110 51 126 12 6 44 11 70 11 41 1 53 -4 78 -28z"/>
<path d="M5561 1974 c-34 -24 -51 -75 -51 -154 l0 -70 240 0 240 0 0 25 0 25
-110 0 -110 0 0 44 c0 73 19 87 128 94 89 5 92 6 92 28 0 23 -3 24 -79 24 -85
0 -128 -11 -148 -37 -11 -14 -15 -13 -43 11 -25 21 -42 26 -84 26 -31 0 -61
-6 -75 -16z m139 -52 c16 -13 24 -32 28 -70 l5 -52 -87 0 -86 0 0 50 c0 37 5
55 20 70 26 26 89 27 120 2z"/>
<path d="M2147 1824 c-4 -4 -7 -15 -7 -25 0 -17 14 -19 187 -21 l187 -3 -184
-77 c-180 -74 -185 -77 -188 -107 l-3 -31 236 0 236 0 -3 23 c-3 22 -3 22
-197 21 -106 -1 -187 2 -180 6 8 4 96 40 197 81 l183 73 -3 31 -3 30 -226 3
c-124 1 -228 -1 -232 -4z"/>
<path d="M3012 1775 c-101 -24 -190 -46 -198 -49 -9 -4 -14 -20 -14 -50 0 -39
3 -46 23 -51 12 -3 99 -23 192 -45 94 -22 176 -40 183 -40 7 0 12 13 12 34 0
31 -3 35 -32 41 -70 14 -69 13 -66 63 l3 47 48 9 c47 8 47 9 47 47 0 21 -3 39
-7 38 -5 0 -90 -20 -191 -44z m38 -100 c0 -32 -2 -35 -22 -30 -13 3 -52 11
-88 19 l-65 13 40 8 c22 4 56 11 75 15 58 13 60 12 60 -25z"/>
<path d="M11383 1803 c-12 -2 -34 -18 -48 -34 -22 -27 -25 -40 -25 -105 l0
-74 180 0 180 0 0 30 0 30 -75 0 -75 0 0 45 c0 75 -62 124 -137 108z m71 -79
c9 -8 16 -29 16 -45 0 -29 -1 -29 -55 -29 -54 0 -55 0 -55 29 0 36 23 61 55
61 13 0 31 -7 39 -16z"/>
<path d="M6170 1765 l0 -34 125 -3 124 -3 -122 -45 -122 -46 -3 -42 -3 -42
200 0 201 0 0 30 0 29 -142 3 -143 3 140 51 140 50 3 42 3 42 -200 0 -201 0 0
-35z"/>
<path d="M10648 1785 c-59 -15 -76 -29 -101 -84 -36 -81 -3 -172 75 -210 92
-44 327 -48 407 -6 67 35 97 107 79 188 -15 67 -76 117 -143 117 -23 0 -25 -4
-25 -45 0 -40 3 -45 28 -51 37 -9 62 -33 62 -60 0 -53 -59 -74 -212 -74 -124
0 -184 17 -194 55 -10 40 4 64 47 76 37 12 39 14 39 55 0 24 -3 45 -7 47 -5 3
-29 -1 -55 -8z"/>
<path d="M10250 1616 l0 -86 -206 0 -205 0 3 -42 3 -43 240 0 240 0 0 125 0
125 -37 3 -38 3 0 -85z"/>
<path d="M5570 1666 c-41 -23 -55 -60 -55 -150 l0 -81 238 -3 237 -2 0 30 0
30 -104 0 -104 0 -4 65 c-3 55 -8 70 -31 92 -22 23 -37 28 -89 30 -42 2 -72
-2 -88 -11z m145 -61 c19 -18 25 -35 25 -70 l0 -45 -90 0 -90 0 0 49 c0 42 4
53 26 70 38 30 98 28 129 -4z"/>
<path d="M11472 1507 l-163 -42 3 -44 3 -44 170 -42 c94 -23 173 -40 178 -38
4 2 7 17 7 33 0 26 -4 30 -42 37 -42 8 -43 9 -46 54 l-3 45 43 9 c39 9 43 13
46 43 4 40 9 41 -196 -11z m48 -88 c0 -28 -3 -31 -22 -25 -13 3 -42 9 -65 12
-24 4 -43 10 -43 14 0 4 21 11 48 17 79 17 82 17 82 -18z"/>
<path d="M6375 1469 c-88 -21 -170 -41 -182 -44 -20 -5 -23 -12 -23 -53 l0
-48 187 -43 c103 -24 193 -45 201 -48 10 -4 13 3 10 33 -3 38 -4 39 -50 48
l-48 9 0 48 c0 48 0 48 38 54 59 10 62 12 62 50 0 43 9 44 -195 -6z m35 -99
c0 -34 3 -33 -76 -20 -90 16 -95 22 -29 35 99 20 105 19 105 -15z"/>
<path d="M2360 1442 l-215 -57 0 -35 0 -34 205 -52 c280 -71 260 -68 260 -39
0 25 0 25 -110 53 l-35 8 0 64 0 64 35 8 c101 24 110 28 110 53 0 17 -5 25
-17 24 -10 0 -115 -26 -233 -57z m50 -93 c0 -48 -1 -51 -22 -45 -13 3 -58 13
-100 23 -43 9 -75 19 -72 22 4 5 156 45 187 50 4 0 7 -22 7 -50z"/>
<path d="M2800 1455 l0 -35 204 0 204 0 4 35 4 35 -208 0 -208 0 0 -35z"/>
<path d="M5572 1350 c-44 -27 -62 -74 -62 -160 l0 -70 240 0 240 0 0 25 c0 24
-1 24 -102 27 l-103 3 -5 60 c-7 74 -19 98 -64 119 -46 22 -104 20 -144 -4z
m109 -40 c41 -12 59 -41 59 -100 l0 -40 -90 0 -90 0 0 44 c0 60 8 76 44 92 38
16 33 16 77 4z"/>
<path d="M2849 1345 c-35 -19 -49 -62 -49 -151 l0 -74 204 0 204 0 4 35 4 35
-89 0 -88 0 3 36 c4 45 15 51 101 59 l67 7 0 35 0 36 -80 -5 c-58 -3 -85 -10
-99 -22 -19 -18 -21 -17 -47 3 -31 25 -95 28 -135 6z m113 -72 c10 -9 18 -30
18 -50 l0 -33 -60 0 -60 0 0 32 c0 59 60 90 102 51z"/>
<path d="M9842 1318 l3 -43 191 -5 c141 -4 195 -9 207 -19 21 -17 22 -60 3
-87 -13 -17 -30 -19 -211 -22 l-196 -3 3 -42 3 -42 180 -3 c196 -3 238 3 275
43 21 22 25 38 28 98 3 83 -8 111 -57 144 -33 22 -42 23 -233 23 l-199 0 3
-42z"/>
<path d="M11537 1260 c-40 -12 -50 -22 -81 -84 -16 -31 -36 -58 -46 -61 -56
-18 -80 54 -25 75 18 7 21 14 17 39 -4 27 -8 31 -26 25 -56 -17 -83 -73 -65
-138 12 -45 42 -66 94 -66 47 0 70 19 104 88 26 50 58 70 90 53 29 -16 27 -56
-4 -77 -17 -11 -25 -25 -25 -45 0 -39 32 -39 71 0 24 25 29 37 29 80 0 42 -5
56 -27 80 -32 33 -65 43 -106 31z"/>
<path d="M2245 1146 c-79 -29 -114 -103 -103 -216 l3 -35 230 0 230 0 -1 75
c-1 140 -50 182 -219 187 -70 2 -112 -1 -140 -11z m259 -60 c42 -17 56 -42 56
-95 l0 -41 -185 0 -185 0 0 41 c0 65 22 91 95 110 43 12 178 2 219 -15z"/>
<path d="M5748 1008 l-238 -60 0 -33 0 -33 230 -56 c127 -31 235 -56 240 -56
6 0 10 11 10 24 0 22 -7 26 -75 41 l-75 16 0 64 0 63 75 17 c72 16 75 17 75
46 0 16 -1 29 -2 28 -2 0 -110 -28 -240 -61z m42 -97 l0 -48 -82 18 c-145 33
-142 30 -43 55 128 32 125 33 125 -25z"/>
<path d="M2800 1015 l0 -35 163 0 c149 0 165 -2 181 -19 10 -11 16 -30 14 -42
-5 -40 -41 -49 -205 -49 l-153 0 0 -36 0 -35 181 3 181 3 29 33 c24 27 29 41
29 83 0 58 -21 102 -57 118 -14 7 -93 11 -193 11 l-170 0 0 -35z"/>
<path d="M9844 997 c-2 -7 -3 -76 -2 -152 l3 -140 38 -3 37 -3 0 55 0 56 205
0 205 0 0 45 0 45 -205 0 -205 0 0 55 0 55 -35 0 c-20 0 -38 -6 -41 -13z"/>
<path d="M11312 958 l3 -33 175 0 175 0 3 33 3 32 -181 0 -181 0 3 -32z"/>
<path d="M11385 856 c-56 -25 -70 -50 -74 -137 l-3 -79 182 0 183 0 -5 68 c-6
88 -26 125 -78 146 -49 19 -163 21 -205 2z m195 -69 c17 -9 26 -22 28 -45 l3
-32 -125 0 c-120 0 -126 1 -126 20 0 12 11 32 25 45 21 22 33 25 97 25 40 0
84 -6 98 -13z"/>
<path d="M2800 645 l0 -105 205 0 205 0 0 40 0 40 -85 0 -84 0 -3 63 c-3 62
-3 62 -33 62 -30 0 -30 0 -33 -62 l-3 -63 -49 0 -50 0 0 65 0 65 -35 0 -35 0
0 -105z"/>
<path d="M5780 693 c-17 -14 -45 -50 -62 -80 -16 -29 -40 -60 -51 -68 -48 -34
-117 -4 -117 50 0 30 32 65 60 65 15 0 20 7 20 26 0 25 -2 26 -37 21 -53 -9
-83 -46 -83 -103 0 -85 39 -124 124 -124 56 0 86 24 127 101 35 64 67 89 119
89 41 0 70 -31 70 -75 0 -39 -28 -75 -60 -75 -16 0 -20 -7 -20 -30 0 -28 2
-30 28 -24 67 15 106 74 97 147 -10 76 -50 107 -135 107 -38 0 -55 -6 -80 -27z"/>
<path d="M10250 580 l0 -90 -70 0 -70 0 0 80 0 80 -35 0 -35 0 0 -80 0 -80
-60 0 -60 0 0 85 0 85 -40 0 -41 0 3 -127 3 -128 240 0 240 0 3 126 c3 124 2
127 -20 133 -57 15 -58 13 -58 -84z"/>
<path d="M2802 438 l3 -33 138 1 c75 0 136 0 135 -2 -2 -1 -64 -25 -138 -52
l-135 -49 -3 -42 -3 -41 205 0 206 0 0 30 0 30 -147 0 -148 1 145 53 145 53 3
42 3 41 -206 0 -206 0 3 -32z"/>
<path d="M5514 385 c-4 -8 -4 -22 0 -30 5 -13 41 -15 241 -15 l235 0 0 30 0
30 -235 0 c-200 0 -236 -2 -241 -15z"/>
<path d="M9908 325 c-44 -25 -61 -69 -66 -177 l-5 -98 247 0 247 0 -3 43 -3
42 -97 3 -98 3 0 45 c0 53 -19 101 -49 129 -29 26 -134 32 -173 10z m134 -92
c11 -10 18 -30 18 -55 l0 -38 -76 0 -77 0 6 42 c3 23 14 48 23 55 25 18 84 16
106 -4z"/>
<path d="M5650 257 c-30 -7 -67 -21 -82 -30 -36 -25 -58 -85 -58 -162 l0 -65
240 0 240 0 0 74 c0 89 -23 130 -90 163 -57 28 -175 37 -250 20z m211 -57 c52
-14 80 -49 82 -101 l2 -44 -192 -3 -193 -2 0 43 c0 53 27 93 73 106 44 13 184
13 228 1z"/>
<path d="M2800 105 l0 -35 205 0 205 0 0 35 0 35 -205 0 -205 0 0 -35z"/>
</g>
</svg>
