<svg xmlns="http://www.w3.org/2000/svg" xmlns:xlink="http://www.w3.org/1999/xlink" viewBox="0 0 737.6 348" width="737.6" height="348"><path d="M 184.600,62.800 C 180.600,61.800 180.664,61.278 176.600,60.800" stroke-width="5.063" stroke="black" fill="none" stroke-linecap="round"></path><path d="M 176.600,60.800 C 172.164,60.278 172.059,60.305 167.600,60.800" stroke-width="3.942" stroke="black" fill="none" stroke-linecap="round"></path><path d="M 167.600,60.800 C 158.559,61.805 158.345,61.371 149.600,63.800" stroke-width="2.993" stroke="black" fill="none" stroke-linecap="round"></path><path d="M 149.600,63.800 C 140.345,66.371 140.316,66.699 131.600,70.800" stroke-width="2.667" stroke="black" fill="none" stroke-linecap="round"></path><path d="M 131.600,70.800 C 123.316,74.699 122.643,74.077 115.600,79.800" stroke-width="2.693" stroke="black" fill="none" stroke-linecap="round"></path><path d="M 115.600,79.800 C 106.643,87.077 106.086,87.396 99.600,96.800" stroke-width="2.459" stroke="black" fill="none" stroke-linecap="round"></path><path d="M 99.600,96.800 C 96.086,101.896 95.600,102.666 95.600,108.800" stroke-width="2.900" stroke="black" fill="none" stroke-linecap="round"></path><path d="M 95.600,108.800 C 95.600,119.166 95.945,119.960 99.600,129.800" stroke-width="2.602" stroke="black" fill="none" stroke-linecap="round"></path><path d="M 99.600,129.800 C 102.445,137.460 103.915,136.929 108.600,143.800" stroke-width="2.708" stroke="black" fill="none" stroke-linecap="round"></path><path d="M 108.600,143.800 C 111.415,147.929 110.911,148.468 114.600,151.800" stroke-width="3.242" stroke="black" fill="none" stroke-linecap="round"></path><path d="M 114.600,151.800 C 126.411,162.468 126.498,162.686 139.600,171.800" stroke-width="2.216" stroke="black" fill="none" stroke-linecap="round"></path><path d="M 139.600,171.800 C 149.498,178.686 150.233,177.580 160.600,183.800" stroke-width="2.232" stroke="black" fill="none" stroke-linecap="round"></path><path d="M 160.600,183.800 C 170.233,189.580 169.840,190.261 179.600,195.800" stroke-width="2.362" stroke="black" fill="none" stroke-linecap="round"></path><path d="M 179.600,195.800 C 188.340,200.761 197.600,201.170 197.600,204.800" stroke-width="2.508" stroke="black" fill="none" stroke-linecap="round"></path><path d="M 197.600,204.800 C 197.600,208.170 188.733,208.278 179.600,209.800" stroke-width="3.675" stroke="black" fill="none" stroke-linecap="round"></path><path d="M 179.600,209.800 C 173.733,210.778 173.598,209.664 167.600,209.800" stroke-width="3.402" stroke="black" fill="none" stroke-linecap="round"></path><path d="M 167.600,209.800 C 151.598,210.164 151.596,210.800 135.600,210.800" stroke-width="2.166" stroke="black" fill="none" stroke-linecap="round"></path><path d="M 135.600,210.800 C 124.596,210.800 124.569,210.666 113.600,209.800" stroke-width="2.358" stroke="black" fill="none" stroke-linecap="round"></path><path d="M 113.600,209.800 C 105.569,209.166 99.846,208.442 97.600,207.800" stroke-width="2.705" stroke="black" fill="none" stroke-linecap="round"></path><path d="M 97.600,207.800 C 96.346,207.442 102.114,207.551 106.600,207.800" stroke-width="3.955" stroke="black" fill="none" stroke-linecap="round"></path><path d="M 106.600,207.800 C 111.114,208.051 111.132,208.079 115.600,208.800" stroke-width="3.751" stroke="black" fill="none" stroke-linecap="round"></path><path d="M 115.600,208.800 C 126.632,210.579 126.573,210.962 137.600,212.800" stroke-width="2.717" stroke="black" fill="none" stroke-linecap="round"></path><path d="M 137.600,212.800 C 147.573,214.462 147.558,214.859 157.600,215.800" stroke-width="2.550" stroke="black" fill="none" stroke-linecap="round"></path><path d="M 157.600,215.800 C 163.558,216.359 165.286,217.791 169.600,215.800" stroke-width="3.031" stroke="black" fill="none" stroke-linecap="round"></path><path d="M 169.600,215.800 C 171.786,214.791 170.511,212.834 170.600,209.800" stroke-width="4.081" stroke="black" fill="none" stroke-linecap="round"></path><path d="M 170.600,209.800 C 171.011,195.834 169.560,195.672 170.600,181.800" stroke-width="2.482" stroke="black" fill="none" stroke-linecap="round"></path><path d="M 170.600,181.800 C 171.060,175.672 170.804,175.227 173.600,169.800" stroke-width="2.977" stroke="black" fill="none" stroke-linecap="round"></path><path d="M 173.600,169.800 C 179.304,158.727 179.691,158.555 187.600,148.800" stroke-width="2.372" stroke="black" fill="none" stroke-linecap="round"></path><path d="M 187.600,148.800 C 194.691,140.055 194.639,139.004 203.600,132.800" stroke-width="2.401" stroke="black" fill="none" stroke-linecap="round"></path><path d="M 203.600,132.800 C 207.639,130.004 210.830,128.785 213.600,130.800" stroke-width="3.086" stroke="black" fill="none" stroke-linecap="round"></path><path d="M 213.600,130.800 C 216.330,132.785 214.719,135.788 214.600,140.800" stroke-width="3.335" stroke="black" fill="none" stroke-linecap="round"></path><path d="M 214.600,140.800 C 214.219,156.788 214.265,156.868 212.600,172.800" stroke-width="2.227" stroke="black" fill="none" stroke-linecap="round"></path><path d="M 212.600,172.800 C 210.765,190.368 210.627,190.392 207.600,207.800" stroke-width="1.931" stroke="black" fill="none" stroke-linecap="round"></path><path d="M 207.600,207.800 C 204.627,224.892 203.391,224.704 200.600,241.800" stroke-width="1.819" stroke="black" fill="none" stroke-linecap="round"></path><path d="M 200.600,241.800 C 199.391,249.204 199.600,254.928 199.600,256.800" stroke-width="2.503" stroke="black" fill="none" stroke-linecap="round"></path><path d="M 199.600,256.800 C 199.600,257.928 199.476,252.171 200.600,247.800" stroke-width="3.748" stroke="black" fill="none" stroke-linecap="round"></path><path d="M 200.600,247.800 C 203.976,234.671 204.615,234.805 208.600,221.800" stroke-width="2.403" stroke="black" fill="none" stroke-linecap="round"></path><path d="M 208.600,221.800 C 214.115,203.805 212.895,203.336 219.600,185.800" stroke-width="1.905" stroke="black" fill="none" stroke-linecap="round"></path><path d="M 219.600,185.800 C 225.895,169.336 225.645,168.912 234.600,153.800" stroke-width="1.850" stroke="black" fill="none" stroke-linecap="round"></path><path d="M 234.600,153.800 C 241.645,141.912 242.281,142.021 251.600,131.800" stroke-width="2.040" stroke="black" fill="none" stroke-linecap="round"></path><path d="M 251.600,131.800 C 257.781,125.021 257.933,124.467 265.600,119.800" stroke-width="2.410" stroke="black" fill="none" stroke-linecap="round"></path><path d="M 265.600,119.800 C 269.433,117.467 272.908,115.093 274.600,117.800" stroke-width="3.161" stroke="black" fill="none" stroke-linecap="round"></path><path d="M 274.600,117.800 C 277.908,123.093 275.386,126.792 275.600,135.800" stroke-width="2.781" stroke="black" fill="none" stroke-linecap="round"></path><path d="M 275.600,135.800 C 275.886,147.792 276.265,147.833 275.600,159.800" stroke-width="2.451" stroke="black" fill="none" stroke-linecap="round"></path><path d="M 275.600,159.800 C 274.765,174.833 274.265,174.818 272.600,189.800" stroke-width="2.139" stroke="black" fill="none" stroke-linecap="round"></path><path d="M 272.600,189.800 C 270.765,206.318 270.495,206.288 268.600,222.800" stroke-width="1.911" stroke="black" fill="none" stroke-linecap="round"></path><path d="M 268.600,222.800 C 266.995,236.788 266.874,236.788 265.600,250.800" stroke-width="2.051" stroke="black" fill="none" stroke-linecap="round"></path><path d="M 265.600,250.800 C 265.374,253.288 265.271,256.622 265.600,255.800" stroke-width="3.254" stroke="black" fill="none" stroke-linecap="round"></path><path d="M 265.600,255.800 C 266.271,254.122 266.805,250.835 267.600,245.800" stroke-width="3.985" stroke="black" fill="none" stroke-linecap="round"></path><path d="M 267.600,245.800 C 269.805,231.835 268.945,231.667 271.600,217.800" stroke-width="2.458" stroke="black" fill="none" stroke-linecap="round"></path><path d="M 271.600,217.800 C 273.445,208.167 273.515,208.054 276.600,198.800" stroke-width="2.562" stroke="black" fill="none" stroke-linecap="round"></path><path d="M 276.600,198.800 C 277.515,196.054 278.621,193.555 279.600,193.800" stroke-width="3.518" stroke="black" fill="none" stroke-linecap="round"></path><path d="M 279.600,193.800 C 280.621,194.055 281.111,196.861 280.600,199.800" stroke-width="4.464" stroke="black" fill="none" stroke-linecap="round"></path><path d="M 280.600,199.800 C 279.111,208.361 277.550,212.120 275.600,216.800" stroke-width="3.869" stroke="black" fill="none" stroke-linecap="round"></path><path d="M 275.600,216.800 C 275.050,218.120 275.046,214.200 275.600,211.800" stroke-width="4.697" stroke="black" fill="none" stroke-linecap="round"></path><path d="M 275.600,211.800 C 276.546,207.700 277.014,207.766 278.600,203.800" stroke-width="3.986" stroke="black" fill="none" stroke-linecap="round"></path><path d="M 278.600,203.800 C 285.014,187.766 283.801,187.120 291.600,171.800" stroke-width="2.210" stroke="black" fill="none" stroke-linecap="round"></path><path d="M 291.600,171.800 C 297.801,159.620 298.491,159.747 306.600,148.800" stroke-width="2.168" stroke="black" fill="none" stroke-linecap="round"></path><path d="M 306.600,148.800 C 308.491,146.247 310.815,143.231 311.600,144.800" stroke-width="3.199" stroke="black" fill="none" stroke-linecap="round"></path><path d="M 311.600,144.800 C 313.315,148.231 311.600,151.800 311.600,158.800" stroke-width="3.731" stroke="black" fill="none" stroke-linecap="round"></path><path d="M 311.600,158.800 C 311.600,169.800 311.986,169.811 311.600,180.800" stroke-width="2.733" stroke="black" fill="none" stroke-linecap="round"></path><path d="M 311.600,180.800 C 310.986,198.311 310.693,198.306 309.600,215.800" stroke-width="1.973" stroke="black" fill="none" stroke-linecap="round"></path><path d="M 309.600,215.800 C 309.193,222.306 308.331,228.262 308.600,228.800" stroke-width="2.689" stroke="black" fill="none" stroke-linecap="round"></path><path d="M 308.600,228.800 C 308.831,229.262 309.369,223.250 310.600,217.800" stroke-width="3.790" stroke="black" fill="none" stroke-linecap="round"></path><path d="M 310.600,217.800 C 312.869,207.750 312.641,207.663 315.600,197.800" stroke-width="2.821" stroke="black" fill="none" stroke-linecap="round"></path><path d="M 315.600,197.800 C 318.641,187.663 318.439,187.510 322.600,177.800" stroke-width="2.528" stroke="black" fill="none" stroke-linecap="round"></path><path d="M 322.600,177.800 C 325.939,170.010 328.811,161.458 330.600,162.800" stroke-width="2.721" stroke="black" fill="none" stroke-linecap="round"></path><path d="M 330.600,162.800 C 332.811,164.458 330.600,173.300 330.600,183.800" stroke-width="3.653" stroke="black" fill="none" stroke-linecap="round"></path><path d="M 330.600,183.800 C 330.600,196.300 330.600,196.300 330.600,208.800" stroke-width="2.567" stroke="black" fill="none" stroke-linecap="round"></path><path d="M 330.600,208.800 C 330.600,219.800 330.600,219.800 330.600,230.800" stroke-width="2.425" stroke="black" fill="none" stroke-linecap="round"></path><path d="M 330.600,230.800 C 330.600,241.300 330.198,245.363 330.600,251.800" stroke-width="2.488" stroke="black" fill="none" stroke-linecap="round"></path><path d="M 330.600,251.800 C 330.698,253.363 330.736,249.175 331.600,246.800" stroke-width="3.877" stroke="black" fill="none" stroke-linecap="round"></path><path d="M 331.600,246.800 C 332.736,243.675 333.280,243.881 334.600,240.800" stroke-width="3.937" stroke="black" fill="none" stroke-linecap="round"></path><path d="M 334.600,240.800 C 337.780,233.381 337.189,233.109 340.600,225.800" stroke-width="3.136" stroke="black" fill="none" stroke-linecap="round"></path><path d="M 340.600,225.800 C 344.189,218.109 344.803,214.597 348.600,210.800" stroke-width="2.838" stroke="black" fill="none" stroke-linecap="round"></path><path d="M 348.600,210.800 C 349.803,209.597 350.204,213.163 350.600,215.800" stroke-width="4.110" stroke="black" fill="none" stroke-linecap="round"></path><path d="M 350.600,215.800 C 351.704,223.163 350.920,223.319 351.600,230.800" stroke-width="3.252" stroke="black" fill="none" stroke-linecap="round"></path><path d="M 351.600,230.800 C 351.920,234.319 352.424,238.857 352.600,237.800" stroke-width="3.725" stroke="black" fill="none" stroke-linecap="round"></path><path d="M 352.600,237.800 C 352.924,235.857 352.941,227.184 352.600,224.800" stroke-width="4.364" stroke="black" fill="none" stroke-linecap="round"></path><path d="M 387.600,181.800 C 387.600,184.300 387.778,184.310 387.600,186.800" stroke-width="5.484" stroke="black" fill="none" stroke-linecap="round"></path><path d="M 387.600,186.800 C 387.278,191.310 388.121,191.618 386.600,195.800" stroke-width="4.710" stroke="black" fill="none" stroke-linecap="round"></path><path d="M 386.600,195.800 C 384.121,202.618 382.552,202.053 379.600,208.800" stroke-width="3.301" stroke="black" fill="none" stroke-linecap="round"></path><path d="M 379.600,208.800 C 375.552,218.053 376.899,218.811 372.600,227.800" stroke-width="2.751" stroke="black" fill="none" stroke-linecap="round"></path><path d="M 363.600,184.800 C 366.600,186.300 366.600,186.300 369.600,187.800" stroke-width="5.240" stroke="black" fill="none" stroke-linecap="round"></path><path d="M 369.600,187.800 C 376.600,191.300 376.485,191.548 383.600,194.800" stroke-width="3.375" stroke="black" fill="none" stroke-linecap="round"></path><path d="M 383.600,194.800 C 393.985,199.548 393.803,200.137 404.600,203.800" stroke-width="2.557" stroke="black" fill="none" stroke-linecap="round"></path><path d="M 404.600,203.800 C 421.803,209.637 422.108,208.773 439.600,213.800" stroke-width="1.905" stroke="black" fill="none" stroke-linecap="round"></path><path d="M 439.600,213.800 C 465.608,221.273 498.148,230.671 491.600,228.800" stroke-width="1.475" stroke="black" fill="none" stroke-linecap="round"></path><path d="M 515.600,124.800 C 512.100,130.300 511.331,129.906 508.600,135.800" stroke-width="4.932" stroke="black" fill="none" stroke-linecap="round"></path><path d="M 508.600,135.800 C 501.831,150.406 503.084,151.009 496.600,165.800" stroke-width="2.371" stroke="black" fill="none" stroke-linecap="round"></path><path d="M 496.600,165.800 C 487.084,187.509 486.869,187.430 476.600,208.800" stroke-width="1.672" stroke="black" fill="none" stroke-linecap="round"></path><path d="M 476.600,208.800 C 468.369,225.930 468.592,226.064 459.600,242.800" stroke-width="1.718" stroke="black" fill="none" stroke-linecap="round"></path><path d="M 459.600,242.800 C 450.592,259.564 450.276,259.404 440.600,275.800" stroke-width="1.731" stroke="black" fill="none" stroke-linecap="round"></path><path d="M 440.600,275.800 C 432.276,289.904 432.026,289.756 423.600,303.800" stroke-width="1.860" stroke="black" fill="none" stroke-linecap="round"></path><path d="M 423.600,303.800 C 420.026,309.756 416.907,318.714 416.600,315.800" stroke-width="2.581" stroke="black" fill="none" stroke-linecap="round"></path><path d="M 416.600,315.800 C 415.907,309.214 418.571,300.196 421.600,284.800" stroke-width="3.016" stroke="black" fill="none" stroke-linecap="round"></path><path d="M 421.600,284.800 C 424.571,269.696 424.182,269.526 428.600,254.800" stroke-width="2.225" stroke="black" fill="none" stroke-linecap="round"></path><path d="M 428.600,254.800 C 433.182,239.526 433.316,239.462 439.600,224.800" stroke-width="2.028" stroke="black" fill="none" stroke-linecap="round"></path><path d="M 439.600,224.800 C 445.316,211.462 445.073,211.165 452.600,198.800" stroke-width="2.006" stroke="black" fill="none" stroke-linecap="round"></path><path d="M 452.600,198.800 C 459.073,188.165 459.386,188.086 467.600,178.800" stroke-width="2.188" stroke="black" fill="none" stroke-linecap="round"></path><path d="M 467.600,178.800 C 470.886,175.086 471.156,174.467 475.600,172.800" stroke-width="2.987" stroke="black" fill="none" stroke-linecap="round"></path><path d="M 475.600,172.800 C 479.156,171.467 479.918,171.748 483.600,172.800" stroke-width="3.483" stroke="black" fill="none" stroke-linecap="round"></path><path d="M 483.600,172.800 C 486.918,173.748 486.943,174.438 489.600,176.800" stroke-width="3.797" stroke="black" fill="none" stroke-linecap="round"></path><path d="M 489.600,176.800 C 491.443,178.438 491.411,178.620 492.600,180.800" stroke-width="4.166" stroke="black" fill="none" stroke-linecap="round"></path><path d="M 492.600,180.800 C 494.411,184.120 494.537,184.156 495.600,187.800" stroke-width="3.965" stroke="black" fill="none" stroke-linecap="round"></path><path d="M 495.600,187.800 C 498.037,196.156 497.482,196.330 499.600,204.800" stroke-width="2.977" stroke="black" fill="none" stroke-linecap="round"></path><path d="M 499.600,204.800 C 500.982,210.330 501.518,210.212 502.600,215.800" stroke-width="3.239" stroke="black" fill="none" stroke-linecap="round"></path><path d="M 502.600,215.800 C 504.518,225.712 504.062,225.806 505.600,235.800" stroke-width="2.671" stroke="black" fill="none" stroke-linecap="round"></path><path d="M 505.600,235.800 C 507.062,245.306 506.942,245.327 508.600,254.800" stroke-width="2.649" stroke="black" fill="none" stroke-linecap="round"></path><path d="M 508.600,254.800 C 510.442,265.327 510.553,265.309 512.600,275.800" stroke-width="2.537" stroke="black" fill="none" stroke-linecap="round"></path><path d="M 512.600,275.800 C 514.553,285.809 514.133,285.933 516.600,295.800" stroke-width="2.492" stroke="black" fill="none" stroke-linecap="round"></path><path d="M 533.600,219.800 C 542.600,219.300 542.719,220.193 551.600,218.800" stroke-width="4.699" stroke="black" fill="none" stroke-linecap="round"></path><path d="M 551.600,218.800 C 568.219,216.193 568.545,216.790 584.600,211.800" stroke-width="2.372" stroke="black" fill="none" stroke-linecap="round"></path><path d="M 584.600,211.800 C 605.545,205.290 605.502,204.704 625.600,195.800" stroke-width="1.745" stroke="black" fill="none" stroke-linecap="round"></path><path d="M 625.600,195.800 C 645.002,187.204 647.710,190.276 663.600,176.800" stroke-width="1.646" stroke="black" fill="none" stroke-linecap="round"></path><path d="M 663.600,176.800 C 687.210,156.776 688.133,154.623 704.600,128.800" stroke-width="1.301" stroke="black" fill="none" stroke-linecap="round"></path><path d="M 704.600,128.800 C 710.133,120.123 706.511,118.329 707.600,107.800" stroke-width="1.959" stroke="black" fill="none" stroke-linecap="round"></path><path d="M 707.600,107.800 C 708.011,103.829 709.655,103.069 707.600,99.800" stroke-width="2.975" stroke="black" fill="none" stroke-linecap="round"></path><path d="M 707.600,99.800 C 698.655,85.569 699.591,81.894 685.600,72.800" stroke-width="2.082" stroke="black" fill="none" stroke-linecap="round"></path><path d="M 685.600,72.800 C 669.591,62.394 667.157,62.526 647.600,60.800" stroke-width="1.785" stroke="black" fill="none" stroke-linecap="round"></path><path d="M 647.600,60.800 C 616.157,58.026 614.189,56.618 583.600,63.800" stroke-width="1.264" stroke="black" fill="none" stroke-linecap="round"></path><path d="M 583.600,63.800 C 556.689,70.118 556.417,73.068 532.600,87.800" stroke-width="1.250" stroke="black" fill="none" stroke-linecap="round"></path><path d="M 532.600,87.800 C 507.917,103.068 507.957,104.045 486.600,123.800" stroke-width="1.221" stroke="black" fill="none" stroke-linecap="round"></path><path d="M 486.600,123.800 C 467.957,141.045 467.310,141.267 452.600,161.800" stroke-width="1.304" stroke="black" fill="none" stroke-linecap="round"></path><path d="M 452.600,161.800 C 443.310,174.767 441.978,175.751 438.600,190.800" stroke-width="1.694" stroke="black" fill="none" stroke-linecap="round"></path><path d="M 438.600,190.800 C 436.478,200.251 435.164,204.949 441.600,210.800" stroke-width="2.224" stroke="black" fill="none" stroke-linecap="round"></path><path d="M 441.600,210.800 C 451.664,219.949 456.135,218.470 471.600,220.800" stroke-width="1.979" stroke="black" fill="none" stroke-linecap="round"></path><path d="M 471.600,220.800 C 492.635,223.970 493.247,223.508 514.600,221.800" stroke-width="1.692" stroke="black" fill="none" stroke-linecap="round"></path><path d="M 514.600,221.800 C 543.247,219.508 543.644,219.530 571.600,212.800" stroke-width="1.332" stroke="black" fill="none" stroke-linecap="round"></path><path d="M 571.600,212.800 C 597.644,206.530 598.565,207.271 622.600,195.800" stroke-width="1.346" stroke="black" fill="none" stroke-linecap="round"></path><path d="M 622.600,195.800 C 642.565,186.271 644.388,185.641 659.600,170.800" stroke-width="1.483" stroke="black" fill="none" stroke-linecap="round"></path><path d="M 659.600,170.800 C 664.888,165.641 666.747,161.539 663.600,155.800" stroke-width="2.271" stroke="black" fill="none" stroke-linecap="round"></path><path d="M 663.600,155.800 C 658.247,146.039 654.515,144.730 642.600,139.800" stroke-width="2.223" stroke="black" fill="none" stroke-linecap="round"></path><path d="M 642.600,139.800 C 625.515,132.730 624.367,133.301 605.600,131.800" stroke-width="1.864" stroke="black" fill="none" stroke-linecap="round"></path><path d="M 605.600,131.800 C 574.367,129.301 574.068,130.641 542.600,131.800" stroke-width="1.290" stroke="black" fill="none" stroke-linecap="round"></path><path d="M 542.600,131.800 C 479.068,134.141 478.957,133.611 415.600,138.800" stroke-width="1.125" stroke="black" fill="none" stroke-linecap="round"></path><path d="M 415.600,138.800 C 362.957,143.111 363.121,144.992 310.600,150.800" stroke-width="1.125" stroke="black" fill="none" stroke-linecap="round"></path><path d="M 310.600,150.800 C 259.121,156.492 258.973,155.311 207.600,161.800" stroke-width="1.125" stroke="black" fill="none" stroke-linecap="round"></path><path d="M 207.600,161.800 C 163.973,167.311 163.728,166.472 120.600,174.800" stroke-width="1.125" stroke="black" fill="none" stroke-linecap="round"></path><path d="M 120.600,174.800 C 91.228,180.472 91.412,181.665 62.600,189.800" stroke-width="1.125" stroke="black" fill="none" stroke-linecap="round"></path><path d="M 62.600,189.800 C 48.912,193.665 49.059,194.185 35.600,198.800" stroke-width="1.631" stroke="black" fill="none" stroke-linecap="round"></path><path d="M 35.600,198.800 C 31.559,200.185 26.946,200.928 27.600,201.800" stroke-width="2.667" stroke="black" fill="none" stroke-linecap="round"></path><path d="M 27.600,201.800 C 28.446,202.928 33.097,202.332 38.600,202.800" stroke-width="3.739" stroke="black" fill="none" stroke-linecap="round"></path><path d="M 38.600,202.800 C 56.597,204.332 56.615,204.130 74.600,205.800" stroke-width="2.059" stroke="black" fill="none" stroke-linecap="round"></path><path d="M 74.600,205.800 C 126.615,210.630 126.849,208.885 178.600,215.800" stroke-width="1.125" stroke="black" fill="none" stroke-linecap="round"></path><path d="M 178.600,215.800 C 242.849,224.385 242.816,225.129 306.600,236.800" stroke-width="1.125" stroke="black" fill="none" stroke-linecap="round"></path><path d="M 306.600,236.800 C 360.316,246.629 360.516,246.051 413.600,258.800" stroke-width="1.125" stroke="black" fill="none" stroke-linecap="round"></path><path d="M 413.600,258.800 C 475.016,273.551 474.523,275.591 535.600,291.800" stroke-width="1.125" stroke="black" fill="none" stroke-linecap="round"></path></svg>